M48
;GenerationSoftware,Autodesk,EAGLE,9.7.0*%
;CreationDate,2026-03-06T09:24:09Z*%
FMAT,2
ICI,OFF
METRIC,TZ,000.000
T7C0.350
T6C0.800
T5C0.840
T4C0.850
T3C1.000
T2C1.090
T1C1.600
%
G90
M71
T1
X6655Y-45208
X-1575Y-45208
T2
X-13779Y-25273
X-16319Y-25273
X-18860Y-25273
T3
X-19810Y37970
X-19810Y29970
T4
X-1873Y21395
X-19653Y21395
X-22193Y6155
X-19653Y6155
X-17113Y6155
X-14573Y6155
X-12033Y6155
X-9493Y6155
X-6953Y6155
X-4413Y6155
X-1873Y6155
X-22193Y21395
X-17113Y21395
X-14573Y21395
X-12033Y21395
X-9493Y21395
X-6953Y21395
X-4413Y21395
T5
X13970Y-33655
X15738Y-31887
X17506Y-30119
X19273Y-28352
X13970Y-24130
X15738Y-22362
X17506Y37736
X19273Y-18827
X13970Y-14605
X15738Y-12837
X17506Y-11069
X19273Y-9302
X13970Y34201
X17506Y-20594
X15738Y35968
X19273Y39504
X13970Y24765
X15738Y26533
X17506Y28301
X19273Y30068
X15738Y17008
X17506Y18776
X19273Y20543
X13970Y5715
X19273Y-37877
X15738Y7483
X17506Y9251
X19273Y11018
X13970Y-43180
X15738Y-41412
X17506Y-39644
X13970Y15240
T6
X-13779Y-8763
X-16279Y-8763
X-18780Y-8763
X-13779Y-14163
X-16279Y-14163
X-18780Y-14163
T7
X11303Y-27051
X9404Y-7874
X9398Y-28829
X3823Y21336
X6604Y-37783
X-889Y31750
X2286Y32639
X1651Y63
X9271Y-19939
X7239Y-30797
X-6604Y35624
X-5905Y34227
X5224Y-4111
X6238Y-2906
X7191Y-1699
X8143Y-493
X2794Y-5207
X635Y-10160
X3302Y-9144
X-4572Y-7620
X-16256Y-6350
X-14097Y-6350
X-10414Y-1905
X-11938Y-1905
X-13335Y4191
X-6477Y19050
X-6477Y16510
X-6477Y13970
X-6477Y11430
X-6477Y8890
X1524Y8890
X1524Y11430
X1524Y13970
X1524Y16510
X1524Y19050
X3810Y13335
X-5108Y-4826
X22860Y-29210
X-3683Y4064
X1905Y-40005
X3810Y-38227
X-381Y-35306
X-8001Y-27686
X-6096Y-25908
X-8509Y-12700
X-8382Y-18288
X-6350Y-10795
X-6223Y-16256
X635Y-11938
X-20193Y-19304
X-20193Y-11430
X-20193Y-4953
X13970Y28067
X-2667Y26289
X-7874Y24638
X-3175Y29083
X-7874Y27305
X-16637Y23876
X-14224Y0
X11932Y31178
X12313Y26479
X11932Y20638
X11029Y11537
X-7620Y33655
X-6350Y31750
X3683Y-6794
X4763Y-7302
X3683Y-7747
X13462Y127
X12382Y-508
X13462Y-952
X508Y-5588
X1143Y-4826
X1651Y-5588
X928Y32760
X1543Y33525
X-16510Y48260
X-16510Y-48260
X22860Y-41910
X-22860Y-41910
X-10160Y48260
X-10160Y-48260
X22860Y-35560
X22860Y10160
X-22860Y-35560
X15240Y48260
X15240Y-48260
X22860Y-10160
X22860Y35560
X22860Y41910
X-22860Y35560
X-22860Y41910
X2540Y48260
X2540Y-48260
X22860Y-22860
X22860Y22860
X-22860Y22860
X-3810Y48260
X-3810Y-48260
X22860Y16510
X-22860Y-29210
X-22860Y16510
X8890Y48260
X8890Y-48260
X22860Y-16510
X22860Y29210
X-22860Y29210
X12446Y35941
X11557Y-37719
X12700Y-16891
X3838Y4699
X-7620Y635
X1593Y36068
X8612Y17653
X9144Y34643
X7366Y-21717
X3870Y38167
X4689Y35316
X5357Y6096
X5588Y33909
X6931Y16002
X10287Y25273
X7737Y36205
X10287Y31242
X6858Y32870
X7493Y-9398
X8636Y31242
X8255Y23876
X10287Y19177
X8485Y8890
X6600Y22910
X6931Y7620
X12728Y-5207
X5357Y14605
X11072Y-6477
X5172Y22190
X11049Y-18288
M30