G04 EAGLE Gerber RS-274X export*
G75*
%MOMM*%
%FSLAX34Y34*%
%LPD*%
%INSoldermask Bottom*%
%IPPOS*%
%AMOC8*
5,1,8,0,0,1.08239X$1,22.5*%
G01*
G04 Define Apertures*
%ADD10C,1.551200*%
%ADD11C,1.838200*%
%ADD12R,1.511200X1.511200*%
%ADD13C,1.511200*%
%ADD14C,1.803200*%
%ADD15C,1.203200*%
%ADD16C,1.981200*%
%ADD17R,1.981200X1.981200*%
%ADD18C,0.959600*%
D10*
X139700Y342005D03*
X157378Y359683D03*
X175055Y377360D03*
X192733Y395038D03*
X139700Y247650D03*
X157378Y265328D03*
X175055Y283005D03*
X192733Y300683D03*
X139700Y152400D03*
X157378Y170078D03*
X175055Y187755D03*
X192733Y205433D03*
X139700Y57150D03*
X157378Y74828D03*
X175055Y92505D03*
X192733Y110183D03*
X139700Y-431800D03*
X157378Y-414122D03*
X175055Y-396445D03*
X192733Y-378767D03*
X139700Y-336550D03*
X157378Y-318872D03*
X175055Y-301195D03*
X192733Y-283517D03*
X139700Y-241300D03*
X157378Y-223622D03*
X175055Y-205945D03*
X192733Y-188267D03*
X139700Y-146050D03*
X157378Y-128372D03*
X175055Y-110695D03*
X192733Y-93017D03*
D11*
X-188595Y-252730D03*
X-163195Y-252730D03*
X-137795Y-252730D03*
D12*
X-137795Y-87630D03*
D13*
X-162795Y-87630D03*
X-187795Y-87630D03*
X-137795Y-141630D03*
X-162795Y-141630D03*
X-187795Y-141630D03*
D14*
X66550Y-452078D03*
X-15750Y-452078D03*
D15*
X-198100Y379700D03*
X-198100Y299700D03*
D16*
X-221933Y61552D03*
D17*
X-196533Y61552D03*
D16*
X-171133Y61552D03*
X-145733Y61552D03*
X-120333Y61552D03*
X-94933Y61552D03*
X-69533Y61552D03*
X-44133Y61552D03*
X-18733Y61552D03*
X-221933Y213952D03*
X-196533Y213952D03*
X-171133Y213952D03*
X-145733Y213952D03*
X-120333Y213952D03*
X-94933Y213952D03*
X-69533Y213952D03*
X-44133Y213952D03*
X-18733Y213952D03*
D18*
X9282Y327599D03*
X15425Y335247D03*
X-165100Y482600D03*
X-165100Y-482600D03*
X228600Y-419100D03*
X-228600Y-419100D03*
X-101600Y482600D03*
X-101600Y-482600D03*
X228600Y-355600D03*
X228600Y101600D03*
X-228600Y-355600D03*
X152400Y482600D03*
X152400Y-482600D03*
X228600Y-101600D03*
X228600Y355600D03*
X228600Y419100D03*
X-228600Y355600D03*
X-228600Y419100D03*
X25400Y482600D03*
X25400Y-482600D03*
X228600Y-228600D03*
X228600Y228600D03*
X-228600Y228600D03*
X-38100Y482600D03*
X-38100Y-482600D03*
X228600Y-292100D03*
X228600Y165100D03*
X-228600Y-292100D03*
X-228600Y165100D03*
X88900Y482600D03*
X88900Y-482600D03*
X228600Y-165100D03*
X228600Y292100D03*
X-228600Y292100D03*
X124460Y359410D03*
X115570Y-377190D03*
X127000Y-168910D03*
X38382Y46990D03*
X15932Y360680D03*
X86118Y176530D03*
X91440Y346428D03*
X73660Y-217170D03*
X38697Y381673D03*
X46894Y353156D03*
X53566Y60960D03*
X55880Y339090D03*
X69308Y160020D03*
X102870Y252730D03*
X77374Y362046D03*
X102870Y312420D03*
X68580Y328704D03*
X74930Y-93980D03*
X86360Y312420D03*
X82550Y238760D03*
X102870Y191770D03*
X84848Y88900D03*
X65998Y229100D03*
X69308Y76200D03*
X127282Y-52070D03*
X53566Y146050D03*
X110716Y-64770D03*
X51722Y221902D03*
X110490Y-182880D03*
X113030Y-270510D03*
X94036Y-78740D03*
X93980Y-288290D03*
X38228Y213360D03*
X66040Y-377825D03*
X-8890Y317500D03*
X22860Y326390D03*
X16510Y635D03*
X92710Y-199390D03*
X72390Y-307975D03*
X-66040Y356235D03*
X-59055Y342265D03*
X52240Y-41105D03*
X62384Y-29056D03*
X71909Y-16991D03*
X81434Y-4926D03*
X27940Y-52070D03*
X6350Y-101600D03*
X33020Y-91440D03*
X-45720Y-76200D03*
X-162560Y-63500D03*
X-140970Y-63500D03*
X-104140Y-19050D03*
X-119380Y-19050D03*
X-133350Y41910D03*
X-64770Y190500D03*
X-64770Y165100D03*
X-64770Y139700D03*
X-64770Y114300D03*
X-64770Y88900D03*
X15240Y88900D03*
X15240Y114300D03*
X15240Y139700D03*
X15240Y165100D03*
X15240Y190500D03*
X38100Y133350D03*
X-51082Y-48260D03*
X-76200Y6350D03*
X-36830Y40640D03*
X19050Y-400050D03*
X38100Y-382270D03*
X-3810Y-353060D03*
X-80010Y-276860D03*
X-60960Y-259080D03*
X-85090Y-127000D03*
X-83820Y-182880D03*
X-63500Y-107950D03*
X-62230Y-162560D03*
X6350Y-119380D03*
X-201930Y-193040D03*
X-201930Y-114300D03*
X-201930Y-49530D03*
X139700Y280670D03*
X-26670Y262890D03*
X-78740Y246380D03*
X-31750Y290830D03*
X-78740Y273050D03*
X-166370Y238760D03*
X-142240Y0D03*
X119324Y311785D03*
X123134Y264795D03*
X119324Y206375D03*
X110292Y115372D03*
X-76200Y336550D03*
X-63500Y317500D03*
X36830Y-67945D03*
X47625Y-73025D03*
X36830Y-77470D03*
X134620Y1270D03*
X123825Y-5080D03*
X134620Y-9525D03*
X5080Y-55880D03*
X11430Y-48260D03*
X16510Y-55880D03*
M02*
