G04 EAGLE Gerber RS-274X export*
G75*
%MOMM*%
%FSLAX34Y34*%
%LPD*%
%INTop Copper*%
%IPPOS*%
%AMOC8*
5,1,8,0,0,1.08239X$1,22.5*%
G01*
G04 Define Apertures*
%ADD10C,1.348000*%
%ADD11R,0.450000X1.475000*%
%ADD12C,1.635000*%
%ADD13R,1.308000X1.308000*%
%ADD14C,1.308000*%
%ADD15R,0.800000X1.400000*%
%ADD16R,1.200000X2.400000*%
%ADD17R,1.300000X0.700000*%
%ADD18R,1.400000X1.200000*%
%ADD19R,2.000000X1.200000*%
%ADD20R,0.450000X0.200000*%
%ADD21R,2.800000X0.300000*%
%ADD22R,1.000000X0.700000*%
%ADD23R,0.970200X0.900000*%
%ADD24R,0.970200X0.932600*%
%ADD25R,0.920900X0.970200*%
%ADD26R,0.970200X0.920900*%
%ADD27R,0.973900X0.798700*%
%ADD28R,1.164600X1.465300*%
%ADD29C,1.778000*%
%ADD30R,1.778000X1.778000*%
%ADD31C,0.152400*%
%ADD32C,0.756400*%
G36*
X-26739Y-489018D02*
X-27036Y-489078D01*
X-199230Y-489078D01*
X-199430Y-489051D01*
X-199701Y-488915D01*
X-199897Y-488684D01*
X-199988Y-488395D01*
X-199959Y-488093D01*
X-199814Y-487826D01*
X-196325Y-483669D01*
X-193078Y-474747D01*
X-193078Y-465253D01*
X-196325Y-456331D01*
X-202428Y-449058D01*
X-210650Y-444311D01*
X-220000Y-442663D01*
X-229350Y-444311D01*
X-237572Y-449058D01*
X-237732Y-449249D01*
X-237997Y-449451D01*
X-238292Y-449521D01*
X-238591Y-449470D01*
X-238846Y-449307D01*
X-239018Y-449057D01*
X-239078Y-448760D01*
X-239078Y-288036D01*
X-239027Y-287761D01*
X-238863Y-287506D01*
X-238613Y-287334D01*
X-238316Y-287274D01*
X-183551Y-287274D01*
X-183232Y-287244D01*
X-182959Y-287165D01*
X-182705Y-287037D01*
X-182480Y-286864D01*
X-182291Y-286652D01*
X-182144Y-286409D01*
X-182051Y-286156D01*
X-181991Y-285700D01*
X-181991Y-260158D01*
X-181935Y-259872D01*
X-181768Y-259619D01*
X-180373Y-258224D01*
X-178896Y-254659D01*
X-178896Y-250801D01*
X-180373Y-247236D01*
X-181768Y-245841D01*
X-181931Y-245599D01*
X-181991Y-245302D01*
X-181991Y-203236D01*
X-182021Y-202917D01*
X-182100Y-202644D01*
X-182228Y-202390D01*
X-182401Y-202165D01*
X-182613Y-201976D01*
X-182856Y-201829D01*
X-183109Y-201736D01*
X-183565Y-201676D01*
X-208534Y-201676D01*
X-208809Y-201625D01*
X-209064Y-201461D01*
X-209236Y-201211D01*
X-209296Y-200914D01*
X-209296Y-40762D01*
X-209245Y-40487D01*
X-209081Y-40232D01*
X-208831Y-40060D01*
X-208534Y-40000D01*
X-191778Y-40000D01*
X-191763Y-40000D01*
X-186450Y-39767D01*
X-186402Y-39761D01*
X-181183Y-38840D01*
X-181134Y-38828D01*
X-176080Y-37234D01*
X-176034Y-37216D01*
X-171232Y-34976D01*
X-171188Y-34951D01*
X-166719Y-32103D01*
X-166679Y-32074D01*
X-162620Y-28667D01*
X-162584Y-28633D01*
X-159004Y-24725D01*
X-158973Y-24686D01*
X-155934Y-20344D01*
X-155909Y-20302D01*
X-153462Y-15601D01*
X-153442Y-15555D01*
X-151631Y-10575D01*
X-151617Y-10527D01*
X-150471Y-5353D01*
X-150463Y-5304D01*
X-150002Y-24D01*
X-150001Y24D01*
X-150199Y5072D01*
X-150205Y5121D01*
X-151060Y10099D01*
X-151072Y10147D01*
X-152569Y14971D01*
X-152587Y15017D01*
X-154702Y19604D01*
X-154726Y19648D01*
X-157421Y23919D01*
X-157450Y23960D01*
X-160680Y27843D01*
X-160714Y27879D01*
X-164423Y31307D01*
X-164462Y31338D01*
X-168586Y34253D01*
X-168629Y34279D01*
X-173099Y36631D01*
X-173144Y36651D01*
X-177883Y38399D01*
X-177930Y38413D01*
X-182856Y39528D01*
X-182906Y39536D01*
X-187942Y39998D01*
X-187978Y40000D01*
X-208534Y40000D01*
X-208809Y40051D01*
X-209064Y40215D01*
X-209236Y40465D01*
X-209296Y40762D01*
X-209296Y51103D01*
X-209249Y51367D01*
X-209090Y51625D01*
X-208842Y51800D01*
X-208546Y51865D01*
X-208248Y51810D01*
X-207995Y51642D01*
X-206475Y50122D01*
X-197295Y50122D01*
X-197295Y72982D01*
X-206475Y72982D01*
X-207995Y71462D01*
X-208215Y71309D01*
X-208510Y71239D01*
X-208809Y71290D01*
X-209064Y71453D01*
X-209236Y71704D01*
X-209296Y72001D01*
X-209296Y87953D01*
X-209240Y88239D01*
X-209073Y88492D01*
X-202148Y95417D01*
X-201943Y95664D01*
X-201806Y95912D01*
X-201720Y96176D01*
X-201676Y96563D01*
X-201676Y104859D01*
X-201620Y105145D01*
X-201453Y105397D01*
X-200508Y106342D01*
X-200508Y122258D01*
X-201453Y123203D01*
X-201616Y123444D01*
X-201676Y123741D01*
X-201676Y133314D01*
X-201706Y133633D01*
X-201785Y133906D01*
X-201913Y134160D01*
X-202086Y134385D01*
X-202298Y134574D01*
X-202541Y134721D01*
X-202794Y134814D01*
X-203250Y134874D01*
X-238316Y134874D01*
X-238591Y134925D01*
X-238846Y135089D01*
X-239018Y135339D01*
X-239078Y135636D01*
X-239078Y448760D01*
X-239005Y449084D01*
X-238824Y449327D01*
X-238562Y449481D01*
X-238262Y449520D01*
X-237970Y449438D01*
X-237732Y449249D01*
X-237572Y449058D01*
X-229350Y444311D01*
X-220000Y442663D01*
X-210650Y444311D01*
X-202428Y449058D01*
X-196325Y456331D01*
X-193078Y465253D01*
X-193078Y474747D01*
X-196325Y483669D01*
X-199814Y487826D01*
X-199922Y487997D01*
X-199992Y488292D01*
X-199941Y488591D01*
X-199777Y488846D01*
X-199527Y489018D01*
X-199230Y489078D01*
X199230Y489078D01*
X199430Y489051D01*
X199701Y488915D01*
X199897Y488684D01*
X199988Y488395D01*
X199959Y488093D01*
X199814Y487826D01*
X196325Y483669D01*
X193078Y474747D01*
X193078Y465253D01*
X196325Y456331D01*
X202428Y449058D01*
X210650Y444311D01*
X220000Y442663D01*
X229350Y444311D01*
X237572Y449058D01*
X237732Y449249D01*
X237997Y449451D01*
X238292Y449521D01*
X238591Y449470D01*
X238846Y449307D01*
X239018Y449057D01*
X239078Y448760D01*
X239078Y61594D01*
X239022Y61308D01*
X238855Y61055D01*
X212375Y34575D01*
X212155Y34422D01*
X211860Y34352D01*
X211561Y34403D01*
X211306Y34566D01*
X211134Y34816D01*
X211074Y35114D01*
X211074Y398744D01*
X211044Y399063D01*
X210965Y399336D01*
X210840Y399583D01*
X210597Y399888D01*
X197953Y412532D01*
X197706Y412737D01*
X197458Y412874D01*
X197194Y412960D01*
X196807Y413004D01*
X46667Y413004D01*
X46381Y413060D01*
X46128Y413227D01*
X27773Y431582D01*
X27526Y431787D01*
X27278Y431924D01*
X27014Y432010D01*
X26627Y432054D01*
X21958Y432054D01*
X21672Y432110D01*
X21420Y432277D01*
X20602Y433095D01*
X10130Y433095D01*
X9238Y432202D01*
X9238Y421238D01*
X10130Y420345D01*
X10414Y420345D01*
X10689Y420294D01*
X10944Y420130D01*
X11116Y419880D01*
X11176Y419583D01*
X11176Y408393D01*
X11125Y408118D01*
X10961Y407862D01*
X10711Y407691D01*
X10414Y407631D01*
X9920Y407631D01*
X9027Y406738D01*
X9027Y390822D01*
X9920Y389930D01*
X10414Y389930D01*
X10689Y389878D01*
X10944Y389715D01*
X11116Y389465D01*
X11176Y389168D01*
X11176Y384846D01*
X11206Y384527D01*
X11285Y384254D01*
X11413Y384000D01*
X11586Y383775D01*
X11798Y383586D01*
X12041Y383439D01*
X12294Y383346D01*
X12750Y383286D01*
X13326Y383286D01*
X13601Y383235D01*
X13856Y383071D01*
X14028Y382821D01*
X14088Y382524D01*
X14088Y373237D01*
X14032Y372951D01*
X13865Y372698D01*
X64Y358897D01*
X64Y318441D01*
X13Y318166D01*
X-151Y317911D01*
X-401Y317739D01*
X-489Y317721D01*
X-1424Y316786D01*
X-1424Y300774D01*
X-531Y299881D01*
X5347Y299881D01*
X5588Y299934D01*
X5872Y299881D01*
X11847Y299881D01*
X12088Y299934D01*
X12372Y299881D01*
X17216Y299881D01*
X17502Y299825D01*
X17755Y299658D01*
X18548Y298865D01*
X21088Y298865D01*
X21088Y318695D01*
X18398Y318695D01*
X18123Y318746D01*
X17868Y318910D01*
X17696Y319160D01*
X17636Y319457D01*
X17636Y329639D01*
X17692Y329925D01*
X17859Y330178D01*
X20731Y333050D01*
X20731Y337445D01*
X17623Y340553D01*
X13227Y340553D01*
X10119Y337445D01*
X10119Y333667D01*
X10068Y333392D01*
X9904Y333137D01*
X9654Y332965D01*
X9357Y332905D01*
X7084Y332905D01*
X5937Y331758D01*
X5717Y331605D01*
X5422Y331535D01*
X5123Y331586D01*
X4868Y331749D01*
X4696Y331999D01*
X4636Y332297D01*
X4636Y356687D01*
X4692Y356973D01*
X4859Y357226D01*
X18660Y371027D01*
X18660Y382524D01*
X18711Y382799D01*
X18875Y383054D01*
X19125Y383226D01*
X19422Y383286D01*
X29174Y383286D01*
X29493Y383316D01*
X29766Y383395D01*
X30013Y383520D01*
X30318Y383763D01*
X34698Y388143D01*
X34940Y388306D01*
X35237Y388366D01*
X176853Y388366D01*
X177139Y388310D01*
X177392Y388143D01*
X177595Y387940D01*
X177746Y387726D01*
X177818Y387431D01*
X177769Y387132D01*
X177608Y386875D01*
X177359Y386702D01*
X177062Y386639D01*
X177053Y386641D01*
X177053Y386640D01*
X173209Y386640D01*
X169799Y385228D01*
X169032Y384461D01*
X182156Y371337D01*
X182923Y372104D01*
X183700Y373981D01*
X183840Y374201D01*
X184085Y374381D01*
X184380Y374451D01*
X184679Y374400D01*
X184934Y374236D01*
X185106Y373986D01*
X185166Y373689D01*
X185166Y304161D01*
X185108Y303870D01*
X184469Y302327D01*
X184469Y299039D01*
X185108Y297497D01*
X185166Y297205D01*
X185166Y286677D01*
X185121Y286419D01*
X184964Y286160D01*
X184718Y285982D01*
X184422Y285915D01*
X184124Y285968D01*
X183870Y286134D01*
X183700Y286385D01*
X182923Y288262D01*
X182156Y289028D01*
X176133Y283005D01*
X182156Y276982D01*
X182923Y277749D01*
X183700Y279626D01*
X183840Y279846D01*
X184085Y280026D01*
X184380Y280096D01*
X184679Y280045D01*
X184934Y279881D01*
X185106Y279631D01*
X185166Y279334D01*
X185166Y208911D01*
X185108Y208620D01*
X184469Y207077D01*
X184469Y203789D01*
X185108Y202247D01*
X185166Y201955D01*
X185166Y191427D01*
X185121Y191169D01*
X184964Y190910D01*
X184718Y190732D01*
X184422Y190665D01*
X184124Y190718D01*
X183870Y190884D01*
X183700Y191135D01*
X182923Y193012D01*
X182156Y193778D01*
X176133Y187755D01*
X182156Y181732D01*
X182923Y182499D01*
X183700Y184376D01*
X183840Y184596D01*
X184085Y184776D01*
X184380Y184846D01*
X184679Y184795D01*
X184934Y184631D01*
X185106Y184381D01*
X185166Y184084D01*
X185166Y113661D01*
X185108Y113370D01*
X184469Y111827D01*
X184469Y108539D01*
X185108Y106997D01*
X185166Y106705D01*
X185166Y96177D01*
X185121Y95919D01*
X184964Y95660D01*
X184718Y95482D01*
X184422Y95415D01*
X184124Y95468D01*
X183870Y95634D01*
X183700Y95885D01*
X182923Y97762D01*
X182156Y98528D01*
X176133Y92505D01*
X182156Y86482D01*
X182923Y87249D01*
X183700Y89126D01*
X183840Y89346D01*
X184085Y89526D01*
X184380Y89596D01*
X184679Y89545D01*
X184934Y89381D01*
X185106Y89131D01*
X185166Y88834D01*
X185166Y68257D01*
X185110Y67971D01*
X184943Y67718D01*
X119598Y2373D01*
X119393Y2126D01*
X119256Y1878D01*
X119170Y1614D01*
X119126Y1227D01*
X119126Y-1960D01*
X119070Y-2246D01*
X118903Y-2498D01*
X118519Y-2882D01*
X118519Y-7278D01*
X118903Y-7662D01*
X119066Y-7903D01*
X119126Y-8200D01*
X119126Y-10759D01*
X119156Y-11078D01*
X119235Y-11351D01*
X119360Y-11598D01*
X119603Y-11903D01*
X184943Y-77243D01*
X185106Y-77485D01*
X185166Y-77782D01*
X185166Y-89539D01*
X185108Y-89830D01*
X184469Y-91373D01*
X184469Y-94661D01*
X185108Y-96203D01*
X185166Y-96495D01*
X185166Y-107023D01*
X185121Y-107281D01*
X184964Y-107540D01*
X184718Y-107718D01*
X184422Y-107785D01*
X184124Y-107732D01*
X183870Y-107566D01*
X183700Y-107315D01*
X182923Y-105438D01*
X182156Y-104672D01*
X176133Y-110695D01*
X182156Y-116718D01*
X182923Y-115951D01*
X183700Y-114074D01*
X183840Y-113854D01*
X184085Y-113674D01*
X184380Y-113604D01*
X184679Y-113655D01*
X184934Y-113819D01*
X185106Y-114069D01*
X185166Y-114366D01*
X185166Y-184789D01*
X185108Y-185080D01*
X184469Y-186623D01*
X184469Y-189911D01*
X185108Y-191453D01*
X185166Y-191745D01*
X185166Y-202273D01*
X185121Y-202531D01*
X184964Y-202790D01*
X184718Y-202968D01*
X184422Y-203035D01*
X184124Y-202982D01*
X183870Y-202816D01*
X183700Y-202565D01*
X182923Y-200688D01*
X182156Y-199922D01*
X176133Y-205945D01*
X182156Y-211968D01*
X182923Y-211201D01*
X183700Y-209324D01*
X183840Y-209104D01*
X184085Y-208924D01*
X184380Y-208854D01*
X184679Y-208905D01*
X184934Y-209069D01*
X185106Y-209319D01*
X185166Y-209616D01*
X185166Y-280039D01*
X185108Y-280330D01*
X184469Y-281873D01*
X184469Y-285161D01*
X185108Y-286703D01*
X185166Y-286995D01*
X185166Y-297523D01*
X185121Y-297781D01*
X184964Y-298040D01*
X184718Y-298218D01*
X184422Y-298285D01*
X184124Y-298232D01*
X183870Y-298066D01*
X183700Y-297815D01*
X182923Y-295938D01*
X182156Y-295172D01*
X176133Y-301195D01*
X182156Y-307218D01*
X182923Y-306451D01*
X183700Y-304574D01*
X183840Y-304354D01*
X184085Y-304174D01*
X184380Y-304104D01*
X184679Y-304155D01*
X184934Y-304319D01*
X185106Y-304569D01*
X185166Y-304866D01*
X185166Y-375289D01*
X185108Y-375580D01*
X184469Y-377123D01*
X184469Y-380411D01*
X185108Y-381953D01*
X185166Y-382245D01*
X185166Y-391124D01*
X185196Y-391443D01*
X185275Y-391716D01*
X185403Y-391970D01*
X185576Y-392195D01*
X185788Y-392384D01*
X186031Y-392531D01*
X186284Y-392624D01*
X186740Y-392684D01*
X209514Y-392684D01*
X209833Y-392654D01*
X210106Y-392575D01*
X210360Y-392447D01*
X210585Y-392274D01*
X210774Y-392062D01*
X210921Y-391819D01*
X211014Y-391566D01*
X211074Y-391110D01*
X211074Y-35114D01*
X211121Y-34850D01*
X211280Y-34592D01*
X211528Y-34417D01*
X211824Y-34352D01*
X212122Y-34407D01*
X212375Y-34575D01*
X238855Y-61055D01*
X239018Y-61296D01*
X239078Y-61594D01*
X239078Y-448760D01*
X239005Y-449084D01*
X238824Y-449327D01*
X238562Y-449481D01*
X238262Y-449520D01*
X237970Y-449438D01*
X237732Y-449249D01*
X237572Y-449058D01*
X229350Y-444311D01*
X220000Y-442663D01*
X210650Y-444311D01*
X202428Y-449058D01*
X196325Y-456331D01*
X193078Y-465253D01*
X193078Y-474747D01*
X196325Y-483669D01*
X199814Y-487826D01*
X199922Y-487997D01*
X199992Y-488292D01*
X199941Y-488591D01*
X199777Y-488846D01*
X199527Y-489018D01*
X199230Y-489078D01*
X77836Y-489078D01*
X77561Y-489027D01*
X77306Y-488863D01*
X77134Y-488613D01*
X77074Y-488316D01*
X77074Y-467552D01*
X77130Y-467266D01*
X77297Y-467013D01*
X81945Y-462365D01*
X84710Y-455690D01*
X84710Y-448466D01*
X81945Y-441791D01*
X77297Y-437143D01*
X77134Y-436901D01*
X77074Y-436604D01*
X77074Y-414447D01*
X76181Y-413554D01*
X62919Y-413554D01*
X62026Y-414447D01*
X62026Y-433787D01*
X61973Y-434067D01*
X61807Y-434321D01*
X61556Y-434491D01*
X56263Y-436683D01*
X51155Y-441791D01*
X48390Y-448466D01*
X48390Y-455690D01*
X51155Y-462365D01*
X56263Y-467473D01*
X61556Y-469666D01*
X61794Y-469822D01*
X61966Y-470072D01*
X62026Y-470370D01*
X62026Y-488316D01*
X61975Y-488591D01*
X61811Y-488846D01*
X61561Y-489018D01*
X61264Y-489078D01*
X-10464Y-489078D01*
X-10739Y-489027D01*
X-10994Y-488863D01*
X-11166Y-488613D01*
X-11226Y-488316D01*
X-11226Y-470370D01*
X-11173Y-470089D01*
X-11007Y-469835D01*
X-10756Y-469666D01*
X-5463Y-467473D01*
X-355Y-462365D01*
X2410Y-455690D01*
X2410Y-448466D01*
X-355Y-441791D01*
X-5463Y-436683D01*
X-10756Y-434491D01*
X-10994Y-434334D01*
X-11166Y-434084D01*
X-11226Y-433787D01*
X-11226Y-414447D01*
X-12119Y-413554D01*
X-25381Y-413554D01*
X-26274Y-414447D01*
X-26274Y-436604D01*
X-26330Y-436890D01*
X-26497Y-437143D01*
X-31145Y-441791D01*
X-33910Y-448466D01*
X-33910Y-455690D01*
X-31145Y-462365D01*
X-26497Y-467013D01*
X-26334Y-467255D01*
X-26274Y-467552D01*
X-26274Y-488316D01*
X-26325Y-488591D01*
X-26489Y-488846D01*
X-26739Y-489018D01*
G37*
%LPC*%
G36*
X636Y427482D02*
X7019Y427482D01*
X7019Y432623D01*
X5531Y434111D01*
X636Y434111D01*
X636Y427482D01*
G37*
G36*
X-7271Y427482D02*
X-888Y427482D01*
X-888Y434111D01*
X-5783Y434111D01*
X-7271Y432623D01*
X-7271Y427482D01*
G37*
G36*
X-5783Y419329D02*
X-888Y419329D01*
X-888Y425958D01*
X-7271Y425958D01*
X-7271Y420817D01*
X-5783Y419329D01*
G37*
G36*
X636Y419329D02*
X5531Y419329D01*
X7019Y420817D01*
X7019Y425958D01*
X636Y425958D01*
X636Y419329D01*
G37*
G36*
X-208731Y400276D02*
X-187469Y400276D01*
X-186576Y401169D01*
X-186576Y414431D01*
X-187469Y415324D01*
X-208731Y415324D01*
X-209624Y414431D01*
X-209624Y401169D01*
X-208731Y400276D01*
G37*
G36*
X13998Y-431118D02*
X18288Y-431118D01*
X18288Y-412038D01*
X13998Y-412038D01*
X12520Y-413516D01*
X12290Y-413674D01*
X11994Y-413739D01*
X11696Y-413683D01*
X11443Y-413516D01*
X10981Y-413054D01*
X9398Y-413054D01*
X9123Y-413003D01*
X8868Y-412839D01*
X8696Y-412589D01*
X8636Y-412292D01*
X8636Y-352298D01*
X8683Y-352035D01*
X8842Y-351777D01*
X9090Y-351601D01*
X9386Y-351536D01*
X9684Y-351592D01*
X9937Y-351759D01*
X29241Y-371063D01*
X29404Y-371305D01*
X29464Y-371602D01*
X29464Y-412292D01*
X29413Y-412567D01*
X29249Y-412822D01*
X28999Y-412994D01*
X28702Y-413054D01*
X27119Y-413054D01*
X26657Y-413516D01*
X26427Y-413674D01*
X26131Y-413739D01*
X25832Y-413683D01*
X25580Y-413516D01*
X24102Y-412038D01*
X19812Y-412038D01*
X19812Y-431118D01*
X24102Y-431118D01*
X25580Y-429641D01*
X25810Y-429483D01*
X26106Y-429417D01*
X26404Y-429473D01*
X26657Y-429641D01*
X27119Y-430102D01*
X36381Y-430102D01*
X37274Y-429209D01*
X37274Y-413947D01*
X36381Y-413054D01*
X34798Y-413054D01*
X34523Y-413003D01*
X34268Y-412839D01*
X34096Y-412589D01*
X34036Y-412292D01*
X34036Y-373387D01*
X34083Y-373124D01*
X34242Y-372866D01*
X34490Y-372691D01*
X34786Y-372626D01*
X35084Y-372681D01*
X35337Y-372849D01*
X41941Y-379453D01*
X42104Y-379694D01*
X42164Y-379991D01*
X42164Y-412292D01*
X42113Y-412567D01*
X41949Y-412822D01*
X41699Y-412994D01*
X41402Y-413054D01*
X39819Y-413054D01*
X38926Y-413947D01*
X38926Y-429209D01*
X39819Y-430102D01*
X49081Y-430102D01*
X49974Y-429209D01*
X49974Y-413947D01*
X49081Y-413054D01*
X47498Y-413054D01*
X47223Y-413003D01*
X46968Y-412839D01*
X46796Y-412589D01*
X46736Y-412292D01*
X46736Y-377782D01*
X-68611Y-262435D01*
X-68774Y-262194D01*
X-68834Y-261896D01*
X-68834Y-6343D01*
X-68778Y-6057D01*
X-68611Y-5804D01*
X-16447Y46360D01*
X-16447Y50718D01*
X-16394Y50998D01*
X-16228Y51252D01*
X-15977Y51422D01*
X-12834Y52723D01*
X-9904Y55653D01*
X-8319Y59481D01*
X-8319Y63623D01*
X-9904Y67451D01*
X-12834Y70381D01*
X-16662Y71966D01*
X-20804Y71966D01*
X-24632Y70381D01*
X-27562Y67451D01*
X-29147Y63623D01*
X-29147Y59481D01*
X-27562Y55653D01*
X-24632Y52723D01*
X-21489Y51422D01*
X-21251Y51265D01*
X-21079Y51015D01*
X-21019Y50718D01*
X-21019Y48570D01*
X-21075Y48284D01*
X-21242Y48031D01*
X-40546Y28727D01*
X-40766Y28574D01*
X-41061Y28504D01*
X-41360Y28555D01*
X-41615Y28718D01*
X-41787Y28968D01*
X-41847Y29266D01*
X-41847Y50718D01*
X-41794Y50998D01*
X-41628Y51252D01*
X-41377Y51422D01*
X-38234Y52723D01*
X-35304Y55653D01*
X-33719Y59481D01*
X-33719Y63623D01*
X-35304Y67451D01*
X-38234Y70381D01*
X-42062Y71966D01*
X-46204Y71966D01*
X-50032Y70381D01*
X-52962Y67451D01*
X-54547Y63623D01*
X-54547Y59481D01*
X-52962Y55653D01*
X-50032Y52723D01*
X-46889Y51422D01*
X-46651Y51265D01*
X-46479Y51015D01*
X-46419Y50718D01*
X-46419Y27480D01*
X-46475Y27194D01*
X-46642Y26941D01*
X-75276Y-1693D01*
X-75507Y-1851D01*
X-75803Y-1916D01*
X-76101Y-1861D01*
X-76354Y-1693D01*
X-112083Y34036D01*
X-134297Y34036D01*
X-136802Y31531D01*
X-137032Y31373D01*
X-137328Y31308D01*
X-137626Y31364D01*
X-137879Y31531D01*
X-161856Y55507D01*
X-162016Y55743D01*
X-162079Y56040D01*
X-162021Y56338D01*
X-160719Y59481D01*
X-160719Y63623D01*
X-162304Y67451D01*
X-165234Y70381D01*
X-168377Y71682D01*
X-168615Y71839D01*
X-168787Y72089D01*
X-168847Y72386D01*
X-168847Y172080D01*
X-180816Y184049D01*
X-180979Y184290D01*
X-181039Y184588D01*
X-181039Y207291D01*
X-180992Y207554D01*
X-180833Y207812D01*
X-180585Y207988D01*
X-180289Y208053D01*
X-179991Y207997D01*
X-179738Y207830D01*
X-177032Y205123D01*
X-173204Y203538D01*
X-169062Y203538D01*
X-165234Y205123D01*
X-162304Y208053D01*
X-160719Y211881D01*
X-160719Y216023D01*
X-162304Y219851D01*
X-165234Y222781D01*
X-169062Y224366D01*
X-173204Y224366D01*
X-177032Y222781D01*
X-179738Y220074D01*
X-179958Y219921D01*
X-180253Y219852D01*
X-180552Y219902D01*
X-180807Y220066D01*
X-180979Y220316D01*
X-181039Y220613D01*
X-181039Y259582D01*
X-180983Y259868D01*
X-180816Y260121D01*
X-105846Y335091D01*
X-105605Y335254D01*
X-105307Y335314D01*
X-101386Y335314D01*
X-101111Y335263D01*
X-100856Y335099D01*
X-100684Y334849D01*
X-100624Y334552D01*
X-100624Y333469D01*
X-99794Y332639D01*
X-99636Y332408D01*
X-99571Y332112D01*
X-99627Y331814D01*
X-99794Y331561D01*
X-100624Y330731D01*
X-100624Y322469D01*
X-99794Y321639D01*
X-99636Y321408D01*
X-99571Y321112D01*
X-99627Y320814D01*
X-99794Y320561D01*
X-100624Y319731D01*
X-100624Y311469D01*
X-99794Y310639D01*
X-99636Y310408D01*
X-99571Y310112D01*
X-99627Y309814D01*
X-99794Y309561D01*
X-100624Y308731D01*
X-100624Y300469D01*
X-99731Y299576D01*
X-85469Y299576D01*
X-84576Y300469D01*
X-84576Y308731D01*
X-85406Y309561D01*
X-85564Y309792D01*
X-85629Y310088D01*
X-85573Y310386D01*
X-85406Y310639D01*
X-84576Y311469D01*
X-84576Y312552D01*
X-84525Y312827D01*
X-84361Y313082D01*
X-84111Y313254D01*
X-83814Y313314D01*
X-80963Y313314D01*
X-64173Y330104D01*
X-63932Y330267D01*
X-63634Y330327D01*
X-50954Y330327D01*
X-50668Y330271D01*
X-50415Y330104D01*
X-49818Y329507D01*
X-49660Y329276D01*
X-49595Y328980D01*
X-49651Y328682D01*
X-49818Y328429D01*
X-51253Y326994D01*
X-51495Y326831D01*
X-51792Y326771D01*
X-64447Y326771D01*
X-65786Y325432D01*
X-65786Y323033D01*
X-65842Y322747D01*
X-66009Y322495D01*
X-68806Y319698D01*
X-68806Y315302D01*
X-65698Y312194D01*
X-61302Y312194D01*
X-58194Y315302D01*
X-58194Y318736D01*
X-58147Y318999D01*
X-57988Y319257D01*
X-57740Y319433D01*
X-57444Y319498D01*
X-57146Y319442D01*
X-56893Y319275D01*
X-53238Y315619D01*
X-53191Y315550D01*
X-51749Y314108D01*
X-28358Y337499D01*
X-29802Y338943D01*
X-29869Y338988D01*
X-33933Y343052D01*
X-33954Y343052D01*
X-34240Y343107D01*
X-34493Y343275D01*
X-75104Y383886D01*
X-83814Y383886D01*
X-84089Y383937D01*
X-84344Y384101D01*
X-84516Y384351D01*
X-84576Y384648D01*
X-84576Y385731D01*
X-85406Y386561D01*
X-85564Y386792D01*
X-85629Y387088D01*
X-85573Y387386D01*
X-85406Y387639D01*
X-84576Y388469D01*
X-84576Y396731D01*
X-85469Y397624D01*
X-91814Y397624D01*
X-92089Y397675D01*
X-92344Y397839D01*
X-92516Y398089D01*
X-92576Y398386D01*
X-92576Y410231D01*
X-93469Y411124D01*
X-108731Y411124D01*
X-109624Y410231D01*
X-109624Y396969D01*
X-108731Y396076D01*
X-101386Y396076D01*
X-101111Y396025D01*
X-100856Y395861D01*
X-100684Y395611D01*
X-100624Y395314D01*
X-100624Y388469D01*
X-99794Y387639D01*
X-99636Y387408D01*
X-99571Y387112D01*
X-99627Y386814D01*
X-99794Y386561D01*
X-100624Y385731D01*
X-100624Y377469D01*
X-99794Y376639D01*
X-99636Y376408D01*
X-99571Y376112D01*
X-99627Y375814D01*
X-99794Y375561D01*
X-100624Y374731D01*
X-100624Y366469D01*
X-100513Y366357D01*
X-100355Y366127D01*
X-100289Y365831D01*
X-100345Y365532D01*
X-100513Y365280D01*
X-101640Y364152D01*
X-101640Y360362D01*
X-83560Y360362D01*
X-83560Y364152D01*
X-84688Y365280D01*
X-84846Y365510D01*
X-84911Y365806D01*
X-84855Y366104D01*
X-84688Y366357D01*
X-84576Y366469D01*
X-84576Y367552D01*
X-84525Y367827D01*
X-84361Y368082D01*
X-84111Y368254D01*
X-83814Y368314D01*
X-71970Y368314D01*
X-71684Y368258D01*
X-71432Y368091D01*
X-55528Y352187D01*
X-55375Y351967D01*
X-55305Y351672D01*
X-55356Y351373D01*
X-55519Y351118D01*
X-55769Y350946D01*
X-56066Y350886D01*
X-83814Y350886D01*
X-84089Y350937D01*
X-84344Y351101D01*
X-84516Y351351D01*
X-84576Y351648D01*
X-84576Y352731D01*
X-84688Y352843D01*
X-84846Y353073D01*
X-84911Y353369D01*
X-84855Y353668D01*
X-84688Y353920D01*
X-83560Y355048D01*
X-83560Y358838D01*
X-101640Y358838D01*
X-101640Y355048D01*
X-100513Y353920D01*
X-100355Y353690D01*
X-100289Y353394D01*
X-100345Y353096D01*
X-100513Y352843D01*
X-100624Y352731D01*
X-100624Y344469D01*
X-99794Y343639D01*
X-99636Y343408D01*
X-99571Y343112D01*
X-99627Y342814D01*
X-99794Y342561D01*
X-100624Y341731D01*
X-100624Y340648D01*
X-100675Y340373D01*
X-100839Y340118D01*
X-101089Y339946D01*
X-101386Y339886D01*
X-107517Y339886D01*
X-185611Y261792D01*
X-185611Y260106D01*
X-185658Y259843D01*
X-185817Y259585D01*
X-186065Y259409D01*
X-186361Y259344D01*
X-186659Y259400D01*
X-186912Y259567D01*
X-187469Y260124D01*
X-208731Y260124D01*
X-209624Y259231D01*
X-209624Y245969D01*
X-208731Y245076D01*
X-187469Y245076D01*
X-186912Y245633D01*
X-186692Y245786D01*
X-186397Y245856D01*
X-186098Y245805D01*
X-185843Y245641D01*
X-185671Y245391D01*
X-185611Y245094D01*
X-185611Y218628D01*
X-185656Y218370D01*
X-185813Y218111D01*
X-186059Y217934D01*
X-186355Y217866D01*
X-186653Y217919D01*
X-186908Y218085D01*
X-187077Y218336D01*
X-187704Y219851D01*
X-190634Y222781D01*
X-194462Y224366D01*
X-198604Y224366D01*
X-202432Y222781D01*
X-205362Y219851D01*
X-206947Y216023D01*
X-206947Y211881D01*
X-205362Y208053D01*
X-202432Y205123D01*
X-198604Y203538D01*
X-194462Y203538D01*
X-190634Y205123D01*
X-187704Y208053D01*
X-187077Y209568D01*
X-186937Y209789D01*
X-186692Y209968D01*
X-186397Y210038D01*
X-186098Y209987D01*
X-185843Y209823D01*
X-185671Y209573D01*
X-185611Y209276D01*
X-185611Y182378D01*
X-173642Y170409D01*
X-173479Y170168D01*
X-173419Y169870D01*
X-173419Y72386D01*
X-173472Y72106D01*
X-173638Y71852D01*
X-173889Y71682D01*
X-177032Y70381D01*
X-179962Y67451D01*
X-181547Y63623D01*
X-181547Y59481D01*
X-179962Y55653D01*
X-177032Y52723D01*
X-173204Y51138D01*
X-169062Y51138D01*
X-165919Y52440D01*
X-165639Y52498D01*
X-165341Y52442D01*
X-165088Y52275D01*
X-129509Y16695D01*
X-129346Y16454D01*
X-129286Y16156D01*
X-129286Y14432D01*
X-129337Y14157D01*
X-129501Y13901D01*
X-129751Y13730D01*
X-130048Y13670D01*
X-132501Y13670D01*
X-133394Y12777D01*
X-133394Y3527D01*
X-132501Y2635D01*
X-121499Y2635D01*
X-120607Y3527D01*
X-120607Y12777D01*
X-121499Y13670D01*
X-123952Y13670D01*
X-124227Y13721D01*
X-124482Y13884D01*
X-124654Y14134D01*
X-124714Y14432D01*
X-124714Y18366D01*
X-133569Y27221D01*
X-133727Y27451D01*
X-133792Y27747D01*
X-133736Y28045D01*
X-133569Y28298D01*
X-132626Y29241D01*
X-132385Y29404D01*
X-132087Y29464D01*
X-114293Y29464D01*
X-114007Y29408D01*
X-113754Y29241D01*
X-79725Y-4788D01*
X-79562Y-5029D01*
X-79502Y-5327D01*
X-79502Y-266631D01*
X3841Y-349974D01*
X4004Y-350215D01*
X4064Y-350513D01*
X4064Y-412292D01*
X4013Y-412567D01*
X3849Y-412822D01*
X3599Y-412994D01*
X3302Y-413054D01*
X1719Y-413054D01*
X826Y-413947D01*
X826Y-429209D01*
X1719Y-430102D01*
X10981Y-430102D01*
X11443Y-429641D01*
X11673Y-429483D01*
X11969Y-429417D01*
X12268Y-429473D01*
X12520Y-429641D01*
X13998Y-431118D01*
G37*
G36*
X-9497Y399542D02*
X-1896Y399542D01*
X-1896Y408647D01*
X-8009Y408647D01*
X-9497Y407159D01*
X-9497Y399542D01*
G37*
G36*
X-372Y399542D02*
X7229Y399542D01*
X7229Y407159D01*
X5741Y408647D01*
X-372Y408647D01*
X-372Y399542D01*
G37*
G36*
X-372Y388914D02*
X5741Y388914D01*
X7229Y390401D01*
X7229Y398018D01*
X-372Y398018D01*
X-372Y388914D01*
G37*
G36*
X-8009Y388914D02*
X-1896Y388914D01*
X-1896Y398018D01*
X-9497Y398018D01*
X-9497Y390401D01*
X-8009Y388914D01*
G37*
G36*
X-201116Y364540D02*
X-195084Y364540D01*
X-189513Y366848D01*
X-185248Y371113D01*
X-182940Y376684D01*
X-182940Y382716D01*
X-185248Y388287D01*
X-189513Y392552D01*
X-195084Y394860D01*
X-201116Y394860D01*
X-206687Y392552D01*
X-210952Y388287D01*
X-213260Y382716D01*
X-213260Y376684D01*
X-210952Y371113D01*
X-206687Y366848D01*
X-201116Y364540D01*
G37*
G36*
X167188Y372104D02*
X167955Y371337D01*
X173978Y377360D01*
X167955Y383383D01*
X167188Y382617D01*
X165775Y379206D01*
X165775Y375514D01*
X167188Y372104D01*
G37*
G36*
X173209Y368080D02*
X176901Y368080D01*
X180312Y369493D01*
X181078Y370260D01*
X175055Y376283D01*
X169032Y370260D01*
X169799Y369493D01*
X173209Y368080D01*
G37*
G36*
X138056Y48886D02*
X141344Y48886D01*
X144381Y50144D01*
X146706Y52469D01*
X147964Y55506D01*
X147964Y58794D01*
X146706Y61831D01*
X144381Y64156D01*
X142456Y64953D01*
X142218Y65110D01*
X142046Y65360D01*
X141986Y65657D01*
X141986Y71780D01*
X142037Y72054D01*
X142201Y72310D01*
X142451Y72481D01*
X142748Y72542D01*
X148871Y72542D01*
X149151Y72488D01*
X149405Y72323D01*
X149575Y72071D01*
X150372Y70146D01*
X152696Y67822D01*
X155734Y66564D01*
X159021Y66564D01*
X162059Y67822D01*
X164384Y70146D01*
X165642Y73184D01*
X165642Y76471D01*
X164384Y79509D01*
X162059Y81834D01*
X159021Y83092D01*
X155734Y83092D01*
X152696Y81834D01*
X150372Y79509D01*
X149575Y77584D01*
X149418Y77346D01*
X149168Y77174D01*
X148871Y77114D01*
X142130Y77114D01*
X141844Y77169D01*
X141591Y77337D01*
X99029Y119899D01*
X98866Y120141D01*
X98806Y120438D01*
X98806Y317177D01*
X86799Y329184D01*
X75281Y329184D01*
X65064Y318967D01*
X65064Y318441D01*
X65013Y318166D01*
X64849Y317911D01*
X64599Y317739D01*
X64428Y317705D01*
X64408Y317691D01*
X64112Y317626D01*
X63828Y317679D01*
X63120Y317679D01*
X62834Y317735D01*
X62581Y317902D01*
X60819Y319664D01*
X60656Y319905D01*
X60596Y320203D01*
X60596Y325753D01*
X60652Y326039D01*
X60819Y326292D01*
X69330Y334803D01*
X69572Y334966D01*
X69869Y335026D01*
X90377Y335026D01*
X90663Y334970D01*
X90916Y334803D01*
X107699Y318020D01*
X107862Y317778D01*
X107922Y317481D01*
X107922Y195480D01*
X137191Y166211D01*
X137354Y165969D01*
X137414Y165672D01*
X137414Y160907D01*
X137361Y160627D01*
X137195Y160373D01*
X136944Y160203D01*
X135019Y159406D01*
X132694Y157081D01*
X131436Y154044D01*
X131436Y150756D01*
X132694Y147719D01*
X135019Y145394D01*
X138056Y144136D01*
X141344Y144136D01*
X144381Y145394D01*
X146706Y147719D01*
X147964Y150756D01*
X147964Y154044D01*
X146706Y157081D01*
X144381Y159406D01*
X142456Y160203D01*
X142218Y160360D01*
X142046Y160610D01*
X141986Y160907D01*
X141986Y167030D01*
X142037Y167304D01*
X142201Y167560D01*
X142451Y167731D01*
X142748Y167792D01*
X148871Y167792D01*
X149151Y167738D01*
X149405Y167573D01*
X149575Y167321D01*
X150372Y165396D01*
X152696Y163072D01*
X155734Y161814D01*
X159021Y161814D01*
X162059Y163072D01*
X164384Y165396D01*
X165642Y168434D01*
X165642Y171721D01*
X164384Y174759D01*
X162059Y177084D01*
X159021Y178342D01*
X155734Y178342D01*
X152696Y177084D01*
X150372Y174759D01*
X149575Y172834D01*
X149418Y172596D01*
X149168Y172424D01*
X148871Y172364D01*
X142130Y172364D01*
X141844Y172419D01*
X141591Y172587D01*
X115765Y198413D01*
X115602Y198655D01*
X115542Y198952D01*
X115542Y320953D01*
X93849Y342646D01*
X65093Y342646D01*
X52064Y329617D01*
X52064Y318441D01*
X52013Y318166D01*
X51849Y317911D01*
X51599Y317739D01*
X51428Y317705D01*
X51408Y317691D01*
X51112Y317626D01*
X50828Y317679D01*
X49628Y317679D01*
X49353Y317730D01*
X49098Y317894D01*
X48926Y318144D01*
X48866Y318441D01*
X48866Y319887D01*
X47819Y320934D01*
X47656Y321175D01*
X47596Y321473D01*
X47596Y336147D01*
X47652Y336433D01*
X47819Y336686D01*
X61120Y349987D01*
X61361Y350150D01*
X61659Y350210D01*
X93890Y350210D01*
X94176Y350154D01*
X94429Y349987D01*
X124491Y319925D01*
X124654Y319683D01*
X124714Y319386D01*
X124714Y273938D01*
X137191Y261461D01*
X137354Y261219D01*
X137414Y260922D01*
X137414Y256157D01*
X137361Y255877D01*
X137195Y255623D01*
X136944Y255453D01*
X135019Y254656D01*
X132694Y252331D01*
X131436Y249294D01*
X131436Y246006D01*
X132694Y242969D01*
X135019Y240644D01*
X138056Y239386D01*
X141344Y239386D01*
X144381Y240644D01*
X146706Y242969D01*
X147964Y246006D01*
X147964Y249294D01*
X146706Y252331D01*
X144381Y254656D01*
X142456Y255453D01*
X142218Y255610D01*
X142046Y255860D01*
X141986Y256157D01*
X141986Y262280D01*
X142037Y262554D01*
X142201Y262810D01*
X142451Y262981D01*
X142748Y263042D01*
X148871Y263042D01*
X149151Y262988D01*
X149405Y262823D01*
X149575Y262571D01*
X150372Y260646D01*
X152696Y258322D01*
X155734Y257064D01*
X159021Y257064D01*
X162059Y258322D01*
X164384Y260646D01*
X165642Y263684D01*
X165642Y266971D01*
X164384Y270009D01*
X162059Y272334D01*
X159021Y273592D01*
X155734Y273592D01*
X152696Y272334D01*
X150372Y270009D01*
X149575Y268084D01*
X149418Y267846D01*
X149168Y267674D01*
X148871Y267614D01*
X142130Y267614D01*
X141844Y267669D01*
X141591Y267837D01*
X132557Y276871D01*
X132394Y277113D01*
X132334Y277410D01*
X132334Y322858D01*
X97362Y357830D01*
X58187Y357830D01*
X39976Y339619D01*
X39976Y318441D01*
X39925Y318166D01*
X39761Y317911D01*
X39511Y317739D01*
X39214Y317679D01*
X38353Y317679D01*
X38112Y317626D01*
X37814Y317682D01*
X37787Y317700D01*
X37623Y317730D01*
X37368Y317894D01*
X37196Y318144D01*
X37136Y318441D01*
X37136Y319867D01*
X37192Y320153D01*
X37359Y320406D01*
X38032Y321078D01*
X38032Y349327D01*
X38088Y349613D01*
X38255Y349866D01*
X53994Y365605D01*
X54236Y365768D01*
X54533Y365828D01*
X127568Y365828D01*
X127854Y365772D01*
X128107Y365605D01*
X137191Y356521D01*
X137354Y356280D01*
X137414Y355982D01*
X137414Y350512D01*
X137361Y350232D01*
X137195Y349978D01*
X136944Y349808D01*
X135019Y349011D01*
X132694Y346686D01*
X131436Y343649D01*
X131436Y340361D01*
X132694Y337324D01*
X135019Y334999D01*
X138056Y333741D01*
X141344Y333741D01*
X144381Y334999D01*
X146706Y337324D01*
X147964Y340361D01*
X147964Y343649D01*
X146706Y346686D01*
X144381Y349011D01*
X142456Y349808D01*
X142218Y349965D01*
X142046Y350215D01*
X141986Y350512D01*
X141986Y356635D01*
X142037Y356909D01*
X142201Y357165D01*
X142451Y357336D01*
X142748Y357397D01*
X148871Y357397D01*
X149151Y357343D01*
X149405Y357178D01*
X149575Y356926D01*
X150372Y355001D01*
X152696Y352677D01*
X155734Y351419D01*
X159021Y351419D01*
X162059Y352677D01*
X164384Y355001D01*
X165642Y358039D01*
X165642Y361326D01*
X164384Y364364D01*
X162059Y366689D01*
X159021Y367947D01*
X155734Y367947D01*
X152696Y366689D01*
X150372Y364364D01*
X149575Y362439D01*
X149418Y362201D01*
X149168Y362029D01*
X148871Y361969D01*
X142835Y361969D01*
X142549Y362024D01*
X142297Y362192D01*
X131040Y373448D01*
X51061Y373448D01*
X30412Y352799D01*
X30412Y324550D01*
X30356Y324265D01*
X30189Y324012D01*
X26064Y319887D01*
X26064Y319457D01*
X26013Y319182D01*
X25849Y318927D01*
X25599Y318755D01*
X25302Y318695D01*
X22612Y318695D01*
X22612Y298865D01*
X25152Y298865D01*
X25945Y299658D01*
X26187Y299821D01*
X26484Y299881D01*
X31347Y299881D01*
X31588Y299934D01*
X31872Y299881D01*
X37847Y299881D01*
X38088Y299934D01*
X38372Y299881D01*
X44347Y299881D01*
X44588Y299934D01*
X44872Y299881D01*
X50847Y299881D01*
X51088Y299934D01*
X51372Y299881D01*
X57347Y299881D01*
X57588Y299934D01*
X57872Y299881D01*
X63847Y299881D01*
X64088Y299934D01*
X64372Y299881D01*
X70347Y299881D01*
X70588Y299934D01*
X70872Y299881D01*
X76731Y299881D01*
X77624Y300774D01*
X77624Y316786D01*
X76693Y317717D01*
X76623Y317730D01*
X76368Y317894D01*
X76196Y318144D01*
X76136Y318441D01*
X76136Y318947D01*
X76192Y319233D01*
X76359Y319486D01*
X77932Y321059D01*
X78173Y321222D01*
X78471Y321282D01*
X82531Y321282D01*
X82817Y321226D01*
X83070Y321059D01*
X90201Y313928D01*
X90364Y313686D01*
X90424Y313389D01*
X90424Y117728D01*
X137191Y70961D01*
X137354Y70719D01*
X137414Y70422D01*
X137414Y65657D01*
X137361Y65377D01*
X137195Y65123D01*
X136944Y64953D01*
X135019Y64156D01*
X132694Y61831D01*
X131436Y58794D01*
X131436Y55506D01*
X132694Y52469D01*
X135019Y50144D01*
X138056Y48886D01*
G37*
G36*
X-97004Y203538D02*
X-92862Y203538D01*
X-89034Y205123D01*
X-86104Y208053D01*
X-84519Y211881D01*
X-84519Y216023D01*
X-86131Y219916D01*
X-86207Y220026D01*
X-86272Y220322D01*
X-86216Y220620D01*
X-86049Y220873D01*
X-80363Y226558D01*
X-80363Y226558D01*
X-78645Y228277D01*
X-78578Y228378D01*
X-73120Y233836D01*
X-72900Y233989D01*
X-72605Y234059D01*
X-72306Y234008D01*
X-72051Y233844D01*
X-71879Y233594D01*
X-71819Y233297D01*
X-71819Y224786D01*
X-71872Y224506D01*
X-72038Y224252D01*
X-72289Y224082D01*
X-75432Y222781D01*
X-78362Y219851D01*
X-79947Y216023D01*
X-79947Y211881D01*
X-78362Y208053D01*
X-75432Y205123D01*
X-71604Y203538D01*
X-67462Y203538D01*
X-63634Y205123D01*
X-60704Y208053D01*
X-59119Y211881D01*
X-59119Y216023D01*
X-60704Y219851D01*
X-63634Y222781D01*
X-66777Y224082D01*
X-67015Y224239D01*
X-67187Y224489D01*
X-67247Y224786D01*
X-67247Y235082D01*
X-67191Y235368D01*
X-67024Y235621D01*
X-47755Y254890D01*
X-47535Y255043D01*
X-47240Y255113D01*
X-46941Y255062D01*
X-46686Y254899D01*
X-46514Y254649D01*
X-46454Y254351D01*
X-46454Y224772D01*
X-46507Y224491D01*
X-46673Y224237D01*
X-46924Y224068D01*
X-50032Y222781D01*
X-52962Y219851D01*
X-54547Y216023D01*
X-54547Y211881D01*
X-52962Y208053D01*
X-50032Y205123D01*
X-46204Y203538D01*
X-42062Y203538D01*
X-38234Y205123D01*
X-35304Y208053D01*
X-33719Y211881D01*
X-33719Y216023D01*
X-35304Y219851D01*
X-38234Y222781D01*
X-41412Y224097D01*
X-41650Y224253D01*
X-41822Y224504D01*
X-41882Y224801D01*
X-41882Y256137D01*
X-41826Y256423D01*
X-41659Y256676D01*
X-22320Y276015D01*
X-22100Y276168D01*
X-21805Y276237D01*
X-21506Y276187D01*
X-21251Y276023D01*
X-21079Y275773D01*
X-21019Y275476D01*
X-21019Y224786D01*
X-21072Y224506D01*
X-21238Y224252D01*
X-21489Y224082D01*
X-24632Y222781D01*
X-27562Y219851D01*
X-29147Y216023D01*
X-29147Y211881D01*
X-27562Y208053D01*
X-24632Y205123D01*
X-20804Y203538D01*
X-16662Y203538D01*
X-12834Y205123D01*
X-9904Y208053D01*
X-8319Y211881D01*
X-8319Y216023D01*
X-9904Y219851D01*
X-12834Y222781D01*
X-15977Y224082D01*
X-16215Y224239D01*
X-16387Y224489D01*
X-16447Y224786D01*
X-16447Y277261D01*
X-16391Y277547D01*
X-16224Y277800D01*
X-12982Y281042D01*
X-12982Y316107D01*
X-23553Y326678D01*
X-23711Y326909D01*
X-23777Y327205D01*
X-23721Y327503D01*
X-23553Y327756D01*
X-21727Y329583D01*
X-21727Y330845D01*
X-25791Y334909D01*
X-25837Y334979D01*
X-27280Y336421D01*
X-50671Y313030D01*
X-49226Y311585D01*
X-49159Y311541D01*
X-45095Y307477D01*
X-43833Y307477D01*
X-41444Y309865D01*
X-41311Y310073D01*
X-41073Y310237D01*
X-38616Y312694D01*
X-38483Y312902D01*
X-38244Y313065D01*
X-36349Y314960D01*
X-36119Y315118D01*
X-35823Y315183D01*
X-35524Y315128D01*
X-35272Y314960D01*
X-26921Y306610D01*
X-26758Y306368D01*
X-26698Y306071D01*
X-26698Y287039D01*
X-26754Y286753D01*
X-26921Y286500D01*
X-83529Y229892D01*
X-83596Y229791D01*
X-89786Y223601D01*
X-90022Y223441D01*
X-90319Y223378D01*
X-90617Y223436D01*
X-92862Y224366D01*
X-97004Y224366D01*
X-100832Y222781D01*
X-103762Y219851D01*
X-105347Y216023D01*
X-105347Y211881D01*
X-103762Y208053D01*
X-100832Y205123D01*
X-97004Y203538D01*
G37*
G36*
X-201116Y284540D02*
X-195084Y284540D01*
X-189513Y286848D01*
X-185248Y291113D01*
X-182940Y296684D01*
X-182940Y302716D01*
X-185248Y308287D01*
X-189513Y312552D01*
X-195084Y314860D01*
X-201116Y314860D01*
X-206687Y312552D01*
X-210952Y308287D01*
X-213260Y302716D01*
X-213260Y296684D01*
X-210952Y291113D01*
X-206687Y286848D01*
X-201116Y284540D01*
G37*
G36*
X169032Y290106D02*
X175055Y284083D01*
X181078Y290106D01*
X180312Y290873D01*
X176901Y292285D01*
X173209Y292285D01*
X169799Y290873D01*
X169032Y290106D01*
G37*
G36*
X167188Y277749D02*
X167955Y276982D01*
X173978Y283005D01*
X167955Y289028D01*
X167188Y288262D01*
X165775Y284851D01*
X165775Y281159D01*
X167188Y277749D01*
G37*
G36*
X173209Y273725D02*
X176901Y273725D01*
X180312Y275138D01*
X181078Y275905D01*
X175055Y281928D01*
X169032Y275905D01*
X169799Y275138D01*
X173209Y273725D01*
G37*
G36*
X-108731Y249276D02*
X-93469Y249276D01*
X-92576Y250169D01*
X-92576Y263431D01*
X-93469Y264324D01*
X-108731Y264324D01*
X-109624Y263431D01*
X-109624Y250169D01*
X-108731Y249276D01*
G37*
G36*
X74612Y250782D02*
X78640Y250782D01*
X78640Y258447D01*
X77152Y259935D01*
X74612Y259935D01*
X74612Y250782D01*
G37*
G36*
X138056Y-440064D02*
X141344Y-440064D01*
X144381Y-438806D01*
X146706Y-436481D01*
X147964Y-433444D01*
X147964Y-430156D01*
X146706Y-427119D01*
X144381Y-424794D01*
X142456Y-423997D01*
X142218Y-423840D01*
X142046Y-423590D01*
X141986Y-423293D01*
X141986Y-417170D01*
X142037Y-416896D01*
X142201Y-416640D01*
X142451Y-416469D01*
X142748Y-416408D01*
X148871Y-416408D01*
X149151Y-416462D01*
X149405Y-416627D01*
X149575Y-416879D01*
X150372Y-418804D01*
X152696Y-421128D01*
X155734Y-422386D01*
X159021Y-422386D01*
X162059Y-421128D01*
X164384Y-418804D01*
X165642Y-415766D01*
X165642Y-412479D01*
X164384Y-409441D01*
X162059Y-407116D01*
X159021Y-405858D01*
X155734Y-405858D01*
X152696Y-407116D01*
X150372Y-409441D01*
X149575Y-411366D01*
X149418Y-411604D01*
X149168Y-411776D01*
X148871Y-411836D01*
X143400Y-411836D01*
X143114Y-411781D01*
X142861Y-411613D01*
X86611Y-355363D01*
X86448Y-355121D01*
X86388Y-354824D01*
X86388Y-59121D01*
X34541Y-7274D01*
X34378Y-7032D01*
X34318Y-6735D01*
X34318Y208265D01*
X30859Y211724D01*
X30696Y211966D01*
X30636Y212263D01*
X30636Y240359D01*
X30687Y240634D01*
X30851Y240889D01*
X31101Y241061D01*
X31272Y241095D01*
X31292Y241109D01*
X31588Y241174D01*
X31872Y241121D01*
X32496Y241121D01*
X32771Y241070D01*
X33026Y240906D01*
X33198Y240656D01*
X33258Y240359D01*
X33258Y224241D01*
X41941Y215558D01*
X42104Y215317D01*
X42164Y215020D01*
X42164Y-3487D01*
X98865Y-60188D01*
X99028Y-60429D01*
X99088Y-60727D01*
X99088Y-277773D01*
X137191Y-315876D01*
X137354Y-316117D01*
X137414Y-316415D01*
X137414Y-328043D01*
X137361Y-328323D01*
X137195Y-328577D01*
X136944Y-328747D01*
X135019Y-329544D01*
X132694Y-331869D01*
X131436Y-334906D01*
X131436Y-338194D01*
X132694Y-341231D01*
X135019Y-343556D01*
X138056Y-344814D01*
X141344Y-344814D01*
X144381Y-343556D01*
X146706Y-341231D01*
X147964Y-338194D01*
X147964Y-334906D01*
X146706Y-331869D01*
X144381Y-329544D01*
X142456Y-328747D01*
X142218Y-328590D01*
X142046Y-328340D01*
X141986Y-328043D01*
X141986Y-318200D01*
X142033Y-317937D01*
X142192Y-317679D01*
X142440Y-317503D01*
X142736Y-317438D01*
X143034Y-317494D01*
X143287Y-317661D01*
X146784Y-321158D01*
X148871Y-321158D01*
X149151Y-321212D01*
X149405Y-321377D01*
X149575Y-321629D01*
X150372Y-323554D01*
X152696Y-325878D01*
X155734Y-327136D01*
X159021Y-327136D01*
X162059Y-325878D01*
X164384Y-323554D01*
X165642Y-320516D01*
X165642Y-317229D01*
X164384Y-314191D01*
X162059Y-311866D01*
X159021Y-310608D01*
X155734Y-310608D01*
X152696Y-311866D01*
X150372Y-314191D01*
X149611Y-316029D01*
X149462Y-316259D01*
X149215Y-316434D01*
X148919Y-316499D01*
X148621Y-316444D01*
X148368Y-316276D01*
X106931Y-274840D01*
X106768Y-274598D01*
X106708Y-274301D01*
X106708Y-57255D01*
X50007Y-554D01*
X49844Y-312D01*
X49784Y-15D01*
X49784Y218492D01*
X43859Y224416D01*
X43696Y224658D01*
X43636Y224955D01*
X43636Y240359D01*
X43687Y240634D01*
X43851Y240889D01*
X44101Y241061D01*
X44272Y241095D01*
X44292Y241109D01*
X44588Y241174D01*
X44872Y241121D01*
X45496Y241121D01*
X45771Y241070D01*
X46026Y240906D01*
X46198Y240656D01*
X46258Y240359D01*
X46258Y232715D01*
X57465Y221508D01*
X57628Y221266D01*
X57688Y220969D01*
X57688Y2579D01*
X115375Y-55108D01*
X115538Y-55349D01*
X115598Y-55647D01*
X115598Y-191926D01*
X137191Y-213519D01*
X137354Y-213761D01*
X137414Y-214058D01*
X137414Y-232793D01*
X137361Y-233073D01*
X137195Y-233327D01*
X136944Y-233497D01*
X135019Y-234294D01*
X132694Y-236619D01*
X131436Y-239656D01*
X131436Y-242944D01*
X132694Y-245981D01*
X135019Y-248306D01*
X138056Y-249564D01*
X141344Y-249564D01*
X144381Y-248306D01*
X146706Y-245981D01*
X147964Y-242944D01*
X147964Y-239656D01*
X146706Y-236619D01*
X144381Y-234294D01*
X142456Y-233497D01*
X142218Y-233340D01*
X142046Y-233090D01*
X141986Y-232793D01*
X141986Y-215843D01*
X142033Y-215580D01*
X142192Y-215322D01*
X142440Y-215146D01*
X142736Y-215081D01*
X143034Y-215137D01*
X143287Y-215304D01*
X149002Y-221019D01*
X149162Y-221255D01*
X149225Y-221552D01*
X149167Y-221850D01*
X149114Y-221979D01*
X149114Y-225266D01*
X150372Y-228304D01*
X152696Y-230628D01*
X155734Y-231886D01*
X159021Y-231886D01*
X162059Y-230628D01*
X164384Y-228304D01*
X165642Y-225266D01*
X165642Y-221979D01*
X164384Y-218941D01*
X162059Y-216616D01*
X159021Y-215358D01*
X155734Y-215358D01*
X152696Y-216616D01*
X152419Y-216894D01*
X152189Y-217052D01*
X151893Y-217117D01*
X151595Y-217061D01*
X151342Y-216894D01*
X123441Y-188993D01*
X123278Y-188751D01*
X123218Y-188454D01*
X123218Y-52175D01*
X65531Y5512D01*
X65368Y5754D01*
X65308Y6051D01*
X65308Y224441D01*
X56283Y233466D01*
X56120Y233708D01*
X56060Y234005D01*
X56060Y240359D01*
X56111Y240634D01*
X56275Y240889D01*
X56525Y241061D01*
X56822Y241121D01*
X57347Y241121D01*
X57588Y241174D01*
X57872Y241121D01*
X59280Y241121D01*
X59566Y241065D01*
X59819Y240898D01*
X72867Y227850D01*
X73030Y227608D01*
X73090Y227311D01*
X73090Y8767D01*
X130841Y-48984D01*
X131004Y-49225D01*
X131064Y-49523D01*
X131064Y-107062D01*
X137191Y-113189D01*
X137354Y-113431D01*
X137414Y-113728D01*
X137414Y-137543D01*
X137361Y-137823D01*
X137195Y-138077D01*
X136944Y-138247D01*
X135019Y-139044D01*
X132694Y-141369D01*
X131436Y-144406D01*
X131436Y-147694D01*
X132694Y-150731D01*
X135019Y-153056D01*
X138056Y-154314D01*
X141344Y-154314D01*
X144381Y-153056D01*
X146706Y-150731D01*
X147964Y-147694D01*
X147964Y-144406D01*
X146706Y-141369D01*
X144381Y-139044D01*
X142456Y-138247D01*
X142218Y-138090D01*
X142046Y-137840D01*
X141986Y-137543D01*
X141986Y-115513D01*
X142033Y-115250D01*
X142192Y-114992D01*
X142440Y-114816D01*
X142736Y-114751D01*
X143034Y-114807D01*
X143287Y-114974D01*
X150649Y-122336D01*
X150807Y-122567D01*
X150872Y-122863D01*
X150816Y-123161D01*
X150649Y-123414D01*
X150372Y-123691D01*
X149114Y-126729D01*
X149114Y-130016D01*
X150372Y-133054D01*
X152696Y-135378D01*
X155734Y-136636D01*
X159021Y-136636D01*
X162059Y-135378D01*
X164384Y-133054D01*
X165642Y-130016D01*
X165642Y-126729D01*
X164384Y-123691D01*
X162059Y-121366D01*
X159021Y-120108D01*
X155734Y-120108D01*
X155605Y-120162D01*
X155326Y-120220D01*
X155028Y-120164D01*
X154775Y-119996D01*
X138907Y-104129D01*
X138744Y-103887D01*
X138684Y-103590D01*
X138684Y-46051D01*
X80933Y11700D01*
X80770Y11942D01*
X80710Y12239D01*
X80710Y230783D01*
X72689Y238804D01*
X72536Y239024D01*
X72466Y239319D01*
X72517Y239618D01*
X72680Y239873D01*
X72930Y240045D01*
X73088Y240077D01*
X73088Y259935D01*
X70548Y259935D01*
X69755Y259142D01*
X69514Y258979D01*
X69216Y258919D01*
X64353Y258919D01*
X64112Y258866D01*
X63828Y258919D01*
X57853Y258919D01*
X57612Y258866D01*
X57328Y258919D01*
X51353Y258919D01*
X51112Y258866D01*
X50828Y258919D01*
X44853Y258919D01*
X44612Y258866D01*
X44328Y258919D01*
X38353Y258919D01*
X38112Y258866D01*
X37828Y258919D01*
X31853Y258919D01*
X31612Y258866D01*
X31328Y258919D01*
X25353Y258919D01*
X25112Y258866D01*
X24828Y258919D01*
X18853Y258919D01*
X18612Y258866D01*
X18328Y258919D01*
X13484Y258919D01*
X13198Y258975D01*
X12945Y259142D01*
X12152Y259935D01*
X9612Y259935D01*
X9612Y240105D01*
X12152Y240105D01*
X12945Y240898D01*
X13187Y241061D01*
X13484Y241121D01*
X18347Y241121D01*
X18588Y241174D01*
X18886Y241118D01*
X18913Y241100D01*
X19077Y241070D01*
X19332Y240906D01*
X19504Y240656D01*
X19564Y240359D01*
X19564Y212243D01*
X26475Y205332D01*
X26638Y205091D01*
X26698Y204793D01*
X26698Y-10214D01*
X78545Y-62061D01*
X78708Y-62303D01*
X78768Y-62600D01*
X78768Y-358296D01*
X137191Y-416719D01*
X137354Y-416961D01*
X137414Y-417258D01*
X137414Y-423293D01*
X137361Y-423573D01*
X137195Y-423827D01*
X136944Y-423997D01*
X135019Y-424794D01*
X132694Y-427119D01*
X131436Y-430156D01*
X131436Y-433444D01*
X132694Y-436481D01*
X135019Y-438806D01*
X138056Y-440064D01*
G37*
G36*
X3112Y240105D02*
X8088Y240105D01*
X8088Y259935D01*
X3112Y259935D01*
X3112Y240105D01*
G37*
G36*
X-2440Y250782D02*
X1588Y250782D01*
X1588Y259935D01*
X-952Y259935D01*
X-2440Y258447D01*
X-2440Y250782D01*
G37*
G36*
X-952Y240105D02*
X1588Y240105D01*
X1588Y249258D01*
X-2440Y249258D01*
X-2440Y241593D01*
X-952Y240105D01*
G37*
G36*
X74612Y240105D02*
X77152Y240105D01*
X78640Y241593D01*
X78640Y249258D01*
X74612Y249258D01*
X74612Y240105D01*
G37*
G36*
X-122404Y203538D02*
X-118262Y203538D01*
X-114434Y205123D01*
X-111504Y208053D01*
X-109919Y211881D01*
X-109919Y216023D01*
X-111504Y219851D01*
X-114434Y222781D01*
X-118262Y224366D01*
X-122404Y224366D01*
X-126232Y222781D01*
X-129162Y219851D01*
X-130747Y216023D01*
X-130747Y211881D01*
X-129162Y208053D01*
X-126232Y205123D01*
X-122404Y203538D01*
G37*
G36*
X-224004Y203538D02*
X-219862Y203538D01*
X-216034Y205123D01*
X-213104Y208053D01*
X-211519Y211881D01*
X-211519Y216023D01*
X-213104Y219851D01*
X-216034Y222781D01*
X-219862Y224366D01*
X-224004Y224366D01*
X-227832Y222781D01*
X-230762Y219851D01*
X-232347Y216023D01*
X-232347Y211881D01*
X-230762Y208053D01*
X-227832Y205123D01*
X-224004Y203538D01*
G37*
G36*
X-147804Y203538D02*
X-143662Y203538D01*
X-139834Y205123D01*
X-136904Y208053D01*
X-135319Y211881D01*
X-135319Y216023D01*
X-136904Y219851D01*
X-139834Y222781D01*
X-143662Y224366D01*
X-147804Y224366D01*
X-151632Y222781D01*
X-154562Y219851D01*
X-156147Y216023D01*
X-156147Y211881D01*
X-154562Y208053D01*
X-151632Y205123D01*
X-147804Y203538D01*
G37*
G36*
X169032Y194856D02*
X175055Y188833D01*
X181078Y194856D01*
X180312Y195623D01*
X176901Y197035D01*
X173209Y197035D01*
X169799Y195623D01*
X169032Y194856D01*
G37*
G36*
X-56781Y80602D02*
X6605Y80602D01*
X6660Y80611D01*
X6661Y80614D01*
X6667Y80654D01*
X6667Y194840D01*
X6658Y194895D01*
X6655Y194896D01*
X6615Y194902D01*
X-56771Y194902D01*
X-56826Y194893D01*
X-56827Y194890D01*
X-56833Y194850D01*
X-56833Y80664D01*
X-56824Y80609D01*
X-56821Y80608D01*
X-56781Y80602D01*
G37*
G36*
X167188Y182499D02*
X167955Y181732D01*
X173978Y187755D01*
X167955Y193778D01*
X167188Y193012D01*
X165775Y189601D01*
X165775Y185909D01*
X167188Y182499D01*
G37*
G36*
X173209Y178475D02*
X176901Y178475D01*
X180312Y179888D01*
X181078Y180655D01*
X175055Y186678D01*
X169032Y180655D01*
X169799Y179888D01*
X173209Y178475D01*
G37*
G36*
X-189585Y115062D02*
X-181984Y115062D01*
X-181984Y122679D01*
X-183472Y124167D01*
X-189585Y124167D01*
X-189585Y115062D01*
G37*
G36*
X-198710Y115062D02*
X-191109Y115062D01*
X-191109Y124167D01*
X-197222Y124167D01*
X-198710Y122679D01*
X-198710Y115062D01*
G37*
G36*
X-189585Y104434D02*
X-183472Y104434D01*
X-181984Y105921D01*
X-181984Y113538D01*
X-189585Y113538D01*
X-189585Y104434D01*
G37*
G36*
X-197222Y104434D02*
X-191109Y104434D01*
X-191109Y113538D01*
X-198710Y113538D01*
X-198710Y105921D01*
X-197222Y104434D01*
G37*
G36*
X169032Y99606D02*
X175055Y93583D01*
X181078Y99606D01*
X180312Y100373D01*
X176901Y101785D01*
X173209Y101785D01*
X169799Y100373D01*
X169032Y99606D01*
G37*
G36*
X167188Y87249D02*
X167955Y86482D01*
X173978Y92505D01*
X167955Y98528D01*
X167188Y97762D01*
X165775Y94351D01*
X165775Y90659D01*
X167188Y87249D01*
G37*
G36*
X173209Y83225D02*
X176901Y83225D01*
X180312Y84638D01*
X181078Y85405D01*
X175055Y91428D01*
X169032Y85405D01*
X169799Y84638D01*
X173209Y83225D01*
G37*
G36*
X-195771Y62314D02*
X-185103Y62314D01*
X-185103Y71494D01*
X-186591Y72982D01*
X-195771Y72982D01*
X-195771Y62314D01*
G37*
G36*
X-122404Y51138D02*
X-118262Y51138D01*
X-114434Y52723D01*
X-111504Y55653D01*
X-109919Y59481D01*
X-109919Y63623D01*
X-111504Y67451D01*
X-114434Y70381D01*
X-118262Y71966D01*
X-122404Y71966D01*
X-126232Y70381D01*
X-129162Y67451D01*
X-130747Y63623D01*
X-130747Y59481D01*
X-129162Y55653D01*
X-126232Y52723D01*
X-122404Y51138D01*
G37*
G36*
X-147804Y51138D02*
X-143662Y51138D01*
X-139834Y52723D01*
X-136904Y55653D01*
X-135319Y59481D01*
X-135319Y63623D01*
X-136904Y67451D01*
X-139834Y70381D01*
X-143662Y71966D01*
X-147804Y71966D01*
X-151632Y70381D01*
X-154562Y67451D01*
X-156147Y63623D01*
X-156147Y59481D01*
X-154562Y55653D01*
X-151632Y52723D01*
X-147804Y51138D01*
G37*
G36*
X-71604Y51138D02*
X-67462Y51138D01*
X-63634Y52723D01*
X-60704Y55653D01*
X-59119Y59481D01*
X-59119Y63623D01*
X-60704Y67451D01*
X-63634Y70381D01*
X-67462Y71966D01*
X-71604Y71966D01*
X-75432Y70381D01*
X-78362Y67451D01*
X-79947Y63623D01*
X-79947Y59481D01*
X-78362Y55653D01*
X-75432Y52723D01*
X-71604Y51138D01*
G37*
G36*
X-97004Y51138D02*
X-92862Y51138D01*
X-89034Y52723D01*
X-86104Y55653D01*
X-84519Y59481D01*
X-84519Y63623D01*
X-86104Y67451D01*
X-89034Y70381D01*
X-92862Y71966D01*
X-97004Y71966D01*
X-100832Y70381D01*
X-103762Y67451D01*
X-105347Y63623D01*
X-105347Y59481D01*
X-103762Y55653D01*
X-100832Y52723D01*
X-97004Y51138D01*
G37*
G36*
X-195771Y50122D02*
X-186591Y50122D01*
X-185103Y51610D01*
X-185103Y60790D01*
X-195771Y60790D01*
X-195771Y50122D01*
G37*
G36*
X-189399Y-95694D02*
X-186191Y-95694D01*
X-183227Y-94466D01*
X-180959Y-92198D01*
X-179731Y-89234D01*
X-179731Y-86026D01*
X-180959Y-83062D01*
X-183227Y-80794D01*
X-183788Y-80561D01*
X-184018Y-80413D01*
X-184194Y-80166D01*
X-184259Y-79869D01*
X-184203Y-79571D01*
X-184036Y-79318D01*
X-124714Y-19997D01*
X-124714Y-14432D01*
X-124663Y-14157D01*
X-124499Y-13901D01*
X-124249Y-13730D01*
X-123952Y-13670D01*
X-121499Y-13670D01*
X-120607Y-12777D01*
X-120607Y-3527D01*
X-121499Y-2635D01*
X-132501Y-2635D01*
X-133394Y-3527D01*
X-133394Y-12777D01*
X-132501Y-13670D01*
X-130048Y-13670D01*
X-129773Y-13721D01*
X-129518Y-13884D01*
X-129346Y-14134D01*
X-129286Y-14432D01*
X-129286Y-17787D01*
X-129342Y-18073D01*
X-129509Y-18326D01*
X-190081Y-78898D01*
X-190081Y-79339D01*
X-190134Y-79620D01*
X-190300Y-79874D01*
X-190551Y-80043D01*
X-192363Y-80794D01*
X-194631Y-83062D01*
X-195859Y-86026D01*
X-195859Y-89234D01*
X-194631Y-92198D01*
X-192363Y-94466D01*
X-189399Y-95694D01*
G37*
G36*
X-28574Y-19558D02*
X-22192Y-19558D01*
X-22192Y-14417D01*
X-23679Y-12929D01*
X-28574Y-12929D01*
X-28574Y-19558D01*
G37*
G36*
X-36481Y-19558D02*
X-30098Y-19558D01*
X-30098Y-12929D01*
X-34993Y-12929D01*
X-36481Y-14417D01*
X-36481Y-19558D01*
G37*
G36*
X13568Y-98503D02*
X24532Y-98503D01*
X25425Y-97610D01*
X25425Y-87348D01*
X24532Y-86455D01*
X22098Y-86455D01*
X21823Y-86404D01*
X21568Y-86240D01*
X21396Y-85990D01*
X21336Y-85693D01*
X21336Y-83566D01*
X21387Y-83291D01*
X21551Y-83036D01*
X21801Y-82864D01*
X22098Y-82804D01*
X50764Y-82804D01*
X51083Y-82774D01*
X51356Y-82695D01*
X51610Y-82567D01*
X51835Y-82394D01*
X52024Y-82182D01*
X52171Y-81939D01*
X52264Y-81686D01*
X52324Y-81230D01*
X52324Y-76145D01*
X52380Y-75859D01*
X52547Y-75607D01*
X52931Y-75223D01*
X52931Y-70827D01*
X52547Y-70443D01*
X52384Y-70202D01*
X52324Y-69905D01*
X52324Y-63536D01*
X52294Y-63217D01*
X52215Y-62944D01*
X52087Y-62690D01*
X51914Y-62465D01*
X51702Y-62276D01*
X51459Y-62129D01*
X51206Y-62036D01*
X50750Y-61976D01*
X23843Y-61976D01*
X23478Y-61883D01*
X23246Y-61688D01*
X23108Y-61417D01*
X23087Y-61115D01*
X23114Y-60910D01*
X23114Y-36866D01*
X23084Y-36547D01*
X23005Y-36274D01*
X22877Y-36020D01*
X22704Y-35795D01*
X22492Y-35606D01*
X22249Y-35459D01*
X21996Y-35366D01*
X21540Y-35306D01*
X-10796Y-35306D01*
X-11071Y-35255D01*
X-11326Y-35091D01*
X-11498Y-34841D01*
X-11558Y-34544D01*
X-11558Y-27457D01*
X-11507Y-27182D01*
X-11343Y-26927D01*
X-11093Y-26755D01*
X-10796Y-26695D01*
X-8608Y-26695D01*
X-7716Y-25802D01*
X-7716Y-14838D01*
X-8608Y-13945D01*
X-19080Y-13945D01*
X-19973Y-14838D01*
X-19973Y-25802D01*
X-19080Y-26695D01*
X-16892Y-26695D01*
X-16617Y-26746D01*
X-16362Y-26910D01*
X-16190Y-27160D01*
X-16130Y-27457D01*
X-16130Y-34544D01*
X-16181Y-34819D01*
X-16345Y-35074D01*
X-16595Y-35246D01*
X-16892Y-35306D01*
X-19014Y-35306D01*
X-19333Y-35336D01*
X-19606Y-35415D01*
X-19860Y-35543D01*
X-20085Y-35716D01*
X-20274Y-35928D01*
X-20421Y-36171D01*
X-20514Y-36424D01*
X-20574Y-36880D01*
X-20574Y-42843D01*
X-20630Y-43129D01*
X-20797Y-43382D01*
X-20934Y-43519D01*
X-20934Y-51781D01*
X-20854Y-51861D01*
X-20696Y-52092D01*
X-20631Y-52388D01*
X-20687Y-52686D01*
X-20854Y-52939D01*
X-20934Y-53019D01*
X-20934Y-61224D01*
X-20963Y-61431D01*
X-21102Y-61701D01*
X-21335Y-61895D01*
X-21625Y-61983D01*
X-21873Y-62006D01*
X-22146Y-62085D01*
X-22400Y-62213D01*
X-22625Y-62386D01*
X-22814Y-62598D01*
X-22961Y-62841D01*
X-23054Y-63094D01*
X-23114Y-63550D01*
X-23114Y-81244D01*
X-23084Y-81563D01*
X-23005Y-81836D01*
X-22877Y-82090D01*
X-22704Y-82315D01*
X-22492Y-82504D01*
X-22249Y-82651D01*
X-21996Y-82744D01*
X-21540Y-82804D01*
X16002Y-82804D01*
X16277Y-82855D01*
X16532Y-83019D01*
X16704Y-83269D01*
X16764Y-83566D01*
X16764Y-85693D01*
X16713Y-85968D01*
X16549Y-86223D01*
X16299Y-86395D01*
X16002Y-86455D01*
X13568Y-86455D01*
X12675Y-87348D01*
X12675Y-97610D01*
X13568Y-98503D01*
G37*
G36*
X-28574Y-27711D02*
X-23679Y-27711D01*
X-22192Y-26223D01*
X-22192Y-21082D01*
X-28574Y-21082D01*
X-28574Y-27711D01*
G37*
G36*
X-34993Y-27711D02*
X-30098Y-27711D01*
X-30098Y-21082D01*
X-36481Y-21082D01*
X-36481Y-26223D01*
X-34993Y-27711D01*
G37*
G36*
X-43930Y-46888D02*
X-37152Y-46888D01*
X-37152Y-41610D01*
X-42442Y-41610D01*
X-43930Y-43098D01*
X-43930Y-46888D01*
G37*
G36*
X-35628Y-46888D02*
X-28850Y-46888D01*
X-28850Y-43098D01*
X-30338Y-41610D01*
X-35628Y-41610D01*
X-35628Y-46888D01*
G37*
G36*
X-37232Y-115475D02*
X-26268Y-115475D01*
X-25375Y-114582D01*
X-25375Y-112394D01*
X-25324Y-112119D01*
X-25160Y-111864D01*
X-24910Y-111692D01*
X-24613Y-111632D01*
X11913Y-111632D01*
X12188Y-111683D01*
X12443Y-111847D01*
X12615Y-112097D01*
X12675Y-112394D01*
X12675Y-113312D01*
X13568Y-114205D01*
X24532Y-114205D01*
X25425Y-113312D01*
X25425Y-102724D01*
X24532Y-101831D01*
X13568Y-101831D01*
X12675Y-102724D01*
X12675Y-106298D01*
X12624Y-106573D01*
X12460Y-106828D01*
X12210Y-107000D01*
X11913Y-107060D01*
X-24613Y-107060D01*
X-24888Y-107009D01*
X-25143Y-106845D01*
X-25315Y-106595D01*
X-25375Y-106298D01*
X-25375Y-104110D01*
X-26268Y-103218D01*
X-34330Y-103218D01*
X-34616Y-103162D01*
X-34869Y-102994D01*
X-36580Y-101283D01*
X-36733Y-101064D01*
X-36803Y-100769D01*
X-36752Y-100470D01*
X-36588Y-100214D01*
X-36338Y-100043D01*
X-36041Y-99983D01*
X-26268Y-99983D01*
X-25375Y-99090D01*
X-25375Y-88618D01*
X-26268Y-87726D01*
X-31179Y-87726D01*
X-31454Y-87674D01*
X-31709Y-87511D01*
X-31881Y-87261D01*
X-31941Y-86964D01*
X-31941Y-83766D01*
X-33881Y-81826D01*
X-34044Y-81585D01*
X-34104Y-81287D01*
X-34104Y-72436D01*
X-34053Y-72161D01*
X-33889Y-71906D01*
X-33639Y-71734D01*
X-33342Y-71674D01*
X-30759Y-71674D01*
X-29866Y-70781D01*
X-29866Y-62519D01*
X-29946Y-62439D01*
X-30104Y-62208D01*
X-30169Y-61912D01*
X-30113Y-61614D01*
X-29946Y-61361D01*
X-29866Y-61281D01*
X-29866Y-53534D01*
X-29810Y-53248D01*
X-29643Y-52995D01*
X-28850Y-52202D01*
X-28850Y-48412D01*
X-43930Y-48412D01*
X-43930Y-52202D01*
X-43137Y-52995D01*
X-42974Y-53237D01*
X-42914Y-53534D01*
X-42914Y-57893D01*
X-42970Y-58179D01*
X-43137Y-58431D01*
X-54074Y-69368D01*
X-54074Y-90255D01*
X-38348Y-105981D01*
X-38185Y-106222D01*
X-38125Y-106520D01*
X-38125Y-114582D01*
X-37232Y-115475D01*
G37*
G36*
X-107740Y-69826D02*
X-101092Y-69826D01*
X-101092Y-64055D01*
X-106252Y-64055D01*
X-107740Y-65542D01*
X-107740Y-69826D01*
G37*
G36*
X-99568Y-69826D02*
X-92921Y-69826D01*
X-92921Y-65542D01*
X-94408Y-64055D01*
X-99568Y-64055D01*
X-99568Y-69826D01*
G37*
G36*
X-99568Y-77122D02*
X-94408Y-77122D01*
X-92921Y-75634D01*
X-92921Y-71350D01*
X-99568Y-71350D01*
X-99568Y-77122D01*
G37*
G36*
X-106252Y-77122D02*
X-101092Y-77122D01*
X-101092Y-71350D01*
X-107740Y-71350D01*
X-107740Y-75634D01*
X-106252Y-77122D01*
G37*
G36*
X-164399Y-95694D02*
X-161191Y-95694D01*
X-158227Y-94466D01*
X-155959Y-92198D01*
X-154731Y-89234D01*
X-154731Y-86026D01*
X-155959Y-83062D01*
X-158227Y-80794D01*
X-161191Y-79566D01*
X-164399Y-79566D01*
X-167363Y-80794D01*
X-169631Y-83062D01*
X-170859Y-86026D01*
X-170859Y-89234D01*
X-169631Y-92198D01*
X-167363Y-94466D01*
X-164399Y-95694D01*
G37*
G36*
X-144966Y-95694D02*
X-130624Y-95694D01*
X-129731Y-94801D01*
X-129731Y-89940D01*
X-129680Y-89665D01*
X-129516Y-89410D01*
X-129266Y-89238D01*
X-128969Y-89178D01*
X-107486Y-89178D01*
X-107211Y-89229D01*
X-106955Y-89393D01*
X-106784Y-89643D01*
X-106724Y-89940D01*
X-106724Y-91517D01*
X-105831Y-92410D01*
X-94829Y-92410D01*
X-93937Y-91517D01*
X-93937Y-82267D01*
X-94829Y-81375D01*
X-105831Y-81375D01*
X-106724Y-82267D01*
X-106724Y-83844D01*
X-106775Y-84119D01*
X-106938Y-84374D01*
X-107188Y-84546D01*
X-107486Y-84606D01*
X-128969Y-84606D01*
X-129244Y-84555D01*
X-129499Y-84391D01*
X-129671Y-84141D01*
X-129731Y-83844D01*
X-129731Y-80459D01*
X-130624Y-79566D01*
X-144966Y-79566D01*
X-145859Y-80459D01*
X-145859Y-94801D01*
X-144966Y-95694D01*
G37*
G36*
X169032Y-103594D02*
X175055Y-109617D01*
X181078Y-103594D01*
X180312Y-102827D01*
X176901Y-101415D01*
X173209Y-101415D01*
X169799Y-102827D01*
X169032Y-103594D01*
G37*
G36*
X167188Y-115951D02*
X167955Y-116718D01*
X173978Y-110695D01*
X167955Y-104672D01*
X167188Y-105438D01*
X165775Y-108849D01*
X165775Y-112541D01*
X167188Y-115951D01*
G37*
G36*
X173209Y-119975D02*
X176901Y-119975D01*
X180312Y-118562D01*
X181078Y-117795D01*
X175055Y-111772D01*
X169032Y-117795D01*
X169799Y-118562D01*
X173209Y-119975D01*
G37*
G36*
X-164399Y-149694D02*
X-161191Y-149694D01*
X-158227Y-148466D01*
X-155959Y-146198D01*
X-154731Y-143234D01*
X-154731Y-140026D01*
X-155959Y-137062D01*
X-158227Y-134794D01*
X-161191Y-133566D01*
X-164399Y-133566D01*
X-167363Y-134794D01*
X-169631Y-137062D01*
X-170859Y-140026D01*
X-170859Y-143234D01*
X-169631Y-146198D01*
X-167363Y-148466D01*
X-164399Y-149694D01*
G37*
G36*
X-139399Y-149694D02*
X-136191Y-149694D01*
X-133227Y-148466D01*
X-130959Y-146198D01*
X-129731Y-143234D01*
X-129731Y-140026D01*
X-130959Y-137062D01*
X-133227Y-134794D01*
X-136191Y-133566D01*
X-139399Y-133566D01*
X-142363Y-134794D01*
X-144631Y-137062D01*
X-145859Y-140026D01*
X-145859Y-143234D01*
X-144631Y-146198D01*
X-142363Y-148466D01*
X-139399Y-149694D01*
G37*
G36*
X-189399Y-149694D02*
X-186191Y-149694D01*
X-183227Y-148466D01*
X-180959Y-146198D01*
X-179731Y-143234D01*
X-179731Y-140026D01*
X-180959Y-137062D01*
X-183227Y-134794D01*
X-186191Y-133566D01*
X-189399Y-133566D01*
X-192363Y-134794D01*
X-194631Y-137062D01*
X-195859Y-140026D01*
X-195859Y-143234D01*
X-194631Y-146198D01*
X-192363Y-148466D01*
X-189399Y-149694D01*
G37*
G36*
X169032Y-198844D02*
X175055Y-204867D01*
X181078Y-198844D01*
X180312Y-198077D01*
X176901Y-196665D01*
X173209Y-196665D01*
X169799Y-198077D01*
X169032Y-198844D01*
G37*
G36*
X167188Y-211201D02*
X167955Y-211968D01*
X173978Y-205945D01*
X167955Y-199922D01*
X167188Y-200688D01*
X165775Y-204099D01*
X165775Y-207791D01*
X167188Y-211201D01*
G37*
G36*
X173209Y-215225D02*
X176901Y-215225D01*
X180312Y-213812D01*
X181078Y-213045D01*
X175055Y-207022D01*
X169032Y-213045D01*
X169799Y-213812D01*
X173209Y-215225D01*
G37*
G36*
X-137033Y-251968D02*
X-127080Y-251968D01*
X-127080Y-250599D01*
X-128711Y-246660D01*
X-131725Y-243646D01*
X-135664Y-242015D01*
X-137033Y-242015D01*
X-137033Y-251968D01*
G37*
G36*
X-148510Y-251968D02*
X-138557Y-251968D01*
X-138557Y-242015D01*
X-139926Y-242015D01*
X-143865Y-243646D01*
X-146879Y-246660D01*
X-148510Y-250599D01*
X-148510Y-251968D01*
G37*
G36*
X-165124Y-262429D02*
X-161266Y-262429D01*
X-157701Y-260952D01*
X-154973Y-258224D01*
X-153496Y-254659D01*
X-153496Y-250801D01*
X-154973Y-247236D01*
X-157701Y-244508D01*
X-161266Y-243031D01*
X-165124Y-243031D01*
X-168689Y-244508D01*
X-171417Y-247236D01*
X-172894Y-250801D01*
X-172894Y-254659D01*
X-171417Y-258224D01*
X-168689Y-260952D01*
X-165124Y-262429D01*
G37*
G36*
X-137033Y-263445D02*
X-135664Y-263445D01*
X-131725Y-261814D01*
X-128711Y-258800D01*
X-127080Y-254861D01*
X-127080Y-253492D01*
X-137033Y-253492D01*
X-137033Y-263445D01*
G37*
G36*
X-139926Y-263445D02*
X-138557Y-263445D01*
X-138557Y-253492D01*
X-148510Y-253492D01*
X-148510Y-254861D01*
X-146879Y-258800D01*
X-143865Y-261814D01*
X-139926Y-263445D01*
G37*
G36*
X169032Y-294094D02*
X175055Y-300117D01*
X181078Y-294094D01*
X180312Y-293327D01*
X176901Y-291915D01*
X173209Y-291915D01*
X169799Y-293327D01*
X169032Y-294094D01*
G37*
G36*
X167188Y-306451D02*
X167955Y-307218D01*
X173978Y-301195D01*
X167955Y-295172D01*
X167188Y-295938D01*
X165775Y-299349D01*
X165775Y-303041D01*
X167188Y-306451D01*
G37*
G36*
X173209Y-310475D02*
X176901Y-310475D01*
X180312Y-309062D01*
X181078Y-308295D01*
X175055Y-302272D01*
X169032Y-308295D01*
X169799Y-309062D01*
X173209Y-310475D01*
G37*
G36*
X169032Y-389344D02*
X175055Y-395367D01*
X181078Y-389344D01*
X180312Y-388577D01*
X176901Y-387165D01*
X173209Y-387165D01*
X169799Y-388577D01*
X169032Y-389344D01*
G37*
G36*
X167188Y-401701D02*
X167955Y-402468D01*
X173978Y-396445D01*
X167955Y-390422D01*
X167188Y-391188D01*
X165775Y-394599D01*
X165775Y-398291D01*
X167188Y-401701D01*
G37*
G36*
X176133Y-396445D02*
X182156Y-402468D01*
X182923Y-401701D01*
X184335Y-398291D01*
X184335Y-394599D01*
X182923Y-391188D01*
X182156Y-390422D01*
X176133Y-396445D01*
G37*
G36*
X173209Y-405725D02*
X176901Y-405725D01*
X180312Y-404312D01*
X181078Y-403545D01*
X175055Y-397522D01*
X169032Y-403545D01*
X169799Y-404312D01*
X173209Y-405725D01*
G37*
%LPD*%
G36*
X-69813Y337347D02*
X-70108Y337277D01*
X-70407Y337328D01*
X-70662Y337491D01*
X-70834Y337741D01*
X-70894Y338039D01*
X-70894Y338748D01*
X-74002Y341856D01*
X-78398Y341856D01*
X-80145Y340109D01*
X-80386Y339946D01*
X-80683Y339886D01*
X-83814Y339886D01*
X-84089Y339937D01*
X-84344Y340101D01*
X-84516Y340351D01*
X-84576Y340648D01*
X-84576Y341731D01*
X-85406Y342561D01*
X-85564Y342792D01*
X-85629Y343088D01*
X-85573Y343386D01*
X-85406Y343639D01*
X-84576Y344469D01*
X-84576Y345552D01*
X-84525Y345827D01*
X-84361Y346082D01*
X-84111Y346254D01*
X-83814Y346314D01*
X-55627Y346314D01*
X-55341Y346258D01*
X-55088Y346091D01*
X-48245Y339248D01*
X-48092Y339028D01*
X-48023Y338733D01*
X-48073Y338434D01*
X-48237Y338179D01*
X-48487Y338007D01*
X-48784Y337947D01*
X-69146Y337947D01*
X-69593Y337500D01*
X-69813Y337347D01*
G37*
G36*
X-38579Y-98595D02*
X-38875Y-98660D01*
X-39173Y-98605D01*
X-39426Y-98437D01*
X-49279Y-88584D01*
X-49442Y-88343D01*
X-49502Y-88045D01*
X-49502Y-71578D01*
X-49446Y-71292D01*
X-49279Y-71039D01*
X-44215Y-65975D01*
X-43995Y-65822D01*
X-43700Y-65752D01*
X-43401Y-65803D01*
X-43146Y-65966D01*
X-42974Y-66216D01*
X-42914Y-66514D01*
X-42914Y-70781D01*
X-42021Y-71674D01*
X-39438Y-71674D01*
X-39163Y-71725D01*
X-38908Y-71889D01*
X-38736Y-72139D01*
X-38676Y-72436D01*
X-38676Y-83497D01*
X-36736Y-85437D01*
X-36573Y-85678D01*
X-36513Y-85976D01*
X-36513Y-86964D01*
X-36564Y-87238D01*
X-36728Y-87494D01*
X-36978Y-87665D01*
X-37221Y-87715D01*
X-38125Y-88618D01*
X-38125Y-97898D01*
X-38172Y-98162D01*
X-38331Y-98420D01*
X-38579Y-98595D01*
G37*
G36*
X208311Y-390999D02*
X207518Y-391160D01*
X197279Y-391160D01*
X196592Y-391040D01*
X195900Y-390621D01*
X195427Y-389965D01*
X195248Y-389177D01*
X195389Y-388380D01*
X195831Y-387703D01*
X196501Y-387251D01*
X197990Y-386634D01*
X198756Y-385868D01*
X191655Y-378767D01*
X198756Y-371666D01*
X197990Y-370900D01*
X194579Y-369487D01*
X190887Y-369487D01*
X189500Y-370062D01*
X188787Y-370215D01*
X187990Y-370080D01*
X187308Y-369644D01*
X186851Y-368977D01*
X186690Y-368184D01*
X186690Y-294100D01*
X186821Y-293382D01*
X187251Y-292697D01*
X187915Y-292235D01*
X188706Y-292068D01*
X189500Y-292222D01*
X190887Y-292797D01*
X194579Y-292797D01*
X197990Y-291384D01*
X198756Y-290618D01*
X191655Y-283517D01*
X198756Y-276416D01*
X197990Y-275650D01*
X194579Y-274237D01*
X190887Y-274237D01*
X189500Y-274812D01*
X188787Y-274965D01*
X187990Y-274830D01*
X187308Y-274394D01*
X186851Y-273727D01*
X186690Y-272934D01*
X186690Y-198850D01*
X186821Y-198132D01*
X187251Y-197447D01*
X187915Y-196985D01*
X188706Y-196818D01*
X189500Y-196972D01*
X190887Y-197547D01*
X194579Y-197547D01*
X197990Y-196134D01*
X198756Y-195368D01*
X191655Y-188267D01*
X198756Y-181166D01*
X197990Y-180400D01*
X194579Y-178987D01*
X190887Y-178987D01*
X189500Y-179562D01*
X188787Y-179715D01*
X187990Y-179580D01*
X187308Y-179144D01*
X186851Y-178477D01*
X186690Y-177684D01*
X186690Y-103600D01*
X186821Y-102882D01*
X187251Y-102197D01*
X187915Y-101735D01*
X188706Y-101568D01*
X189500Y-101722D01*
X190887Y-102297D01*
X194579Y-102297D01*
X197990Y-100884D01*
X198756Y-100118D01*
X191655Y-93017D01*
X198756Y-85916D01*
X197990Y-85150D01*
X194579Y-83737D01*
X190887Y-83737D01*
X189500Y-84312D01*
X188787Y-84465D01*
X187990Y-84330D01*
X187308Y-83894D01*
X186851Y-83227D01*
X186690Y-82434D01*
X186690Y-76932D01*
X186681Y-76841D01*
X186681Y-76840D01*
X186619Y-76764D01*
X121245Y-11390D01*
X120811Y-10746D01*
X120650Y-9953D01*
X120650Y428D01*
X120799Y1191D01*
X121245Y1865D01*
X186622Y67242D01*
X186680Y67312D01*
X186680Y67313D01*
X186690Y67411D01*
X186690Y99600D01*
X186821Y100318D01*
X187251Y101003D01*
X187915Y101465D01*
X188706Y101632D01*
X189500Y101478D01*
X190887Y100903D01*
X194579Y100903D01*
X197990Y102316D01*
X198756Y103082D01*
X191655Y110183D01*
X198756Y117284D01*
X197990Y118050D01*
X194579Y119463D01*
X190887Y119463D01*
X189500Y118888D01*
X188787Y118735D01*
X187990Y118870D01*
X187308Y119306D01*
X186851Y119973D01*
X186690Y120766D01*
X186690Y194850D01*
X186821Y195568D01*
X187251Y196253D01*
X187915Y196715D01*
X188706Y196882D01*
X189500Y196728D01*
X190887Y196153D01*
X194579Y196153D01*
X197990Y197566D01*
X198756Y198332D01*
X191655Y205433D01*
X198756Y212534D01*
X197990Y213300D01*
X194579Y214713D01*
X190887Y214713D01*
X189500Y214138D01*
X188787Y213985D01*
X187990Y214120D01*
X187308Y214556D01*
X186851Y215223D01*
X186690Y216016D01*
X186690Y290100D01*
X186821Y290818D01*
X187251Y291503D01*
X187915Y291965D01*
X188706Y292132D01*
X189500Y291978D01*
X190887Y291403D01*
X194579Y291403D01*
X197990Y292816D01*
X198756Y293582D01*
X191655Y300683D01*
X198756Y307784D01*
X197990Y308550D01*
X194579Y309963D01*
X190887Y309963D01*
X189500Y309388D01*
X188787Y309235D01*
X187990Y309370D01*
X187308Y309806D01*
X186851Y310473D01*
X186690Y311266D01*
X186690Y380903D01*
X186681Y380994D01*
X186681Y380995D01*
X186619Y381071D01*
X177868Y389822D01*
X177798Y389880D01*
X177797Y389880D01*
X177699Y389890D01*
X34387Y389890D01*
X34296Y389881D01*
X34295Y389881D01*
X34219Y389819D01*
X29805Y385405D01*
X29161Y384971D01*
X28368Y384810D01*
X14732Y384810D01*
X14000Y384947D01*
X13318Y385382D01*
X12861Y386049D01*
X12700Y386842D01*
X12700Y386882D01*
X12837Y387614D01*
X13272Y388295D01*
X13939Y388753D01*
X14732Y388914D01*
X15612Y388914D01*
X15612Y408647D01*
X14732Y408647D01*
X14000Y408783D01*
X13318Y409219D01*
X12861Y409886D01*
X12700Y410679D01*
X12700Y417297D01*
X12837Y418030D01*
X13272Y418711D01*
X13939Y419168D01*
X14604Y419303D01*
X14604Y427482D01*
X22511Y427482D01*
X22511Y428498D01*
X22647Y429231D01*
X23083Y429912D01*
X23750Y430369D01*
X24543Y430530D01*
X25828Y430530D01*
X26591Y430381D01*
X27265Y429935D01*
X45652Y411548D01*
X45722Y411490D01*
X45723Y411490D01*
X45821Y411480D01*
X196008Y411480D01*
X196771Y411331D01*
X197445Y410885D01*
X208955Y399375D01*
X209389Y398731D01*
X209550Y397938D01*
X209550Y32592D01*
X209401Y31829D01*
X208955Y31155D01*
X203271Y25471D01*
X203196Y25380D01*
X202575Y24872D01*
X201800Y24643D01*
X200996Y24735D01*
X194264Y26922D01*
X185736Y26922D01*
X177625Y24287D01*
X170726Y19274D01*
X165713Y12375D01*
X163078Y4264D01*
X163078Y-4264D01*
X165713Y-12375D01*
X170726Y-19274D01*
X177625Y-24287D01*
X185736Y-26922D01*
X194264Y-26922D01*
X200995Y-24735D01*
X201784Y-24642D01*
X202561Y-24865D01*
X203190Y-25373D01*
X203268Y-25468D01*
X208955Y-31155D01*
X209389Y-31799D01*
X209550Y-32592D01*
X209550Y-389128D01*
X209413Y-389861D01*
X208978Y-390542D01*
X208311Y-390999D01*
G37*
%LPC*%
G36*
X16128Y419329D02*
X21023Y419329D01*
X22511Y420817D01*
X22511Y425958D01*
X16128Y425958D01*
X16128Y419329D01*
G37*
G36*
X17136Y399542D02*
X24737Y399542D01*
X24737Y407159D01*
X23249Y408647D01*
X17136Y408647D01*
X17136Y399542D01*
G37*
G36*
X186710Y402139D02*
X192733Y396116D01*
X198756Y402139D01*
X197990Y402905D01*
X194579Y404318D01*
X190887Y404318D01*
X187476Y402905D01*
X186710Y402139D01*
G37*
G36*
X184866Y389781D02*
X185632Y389015D01*
X191655Y395038D01*
X185632Y401061D01*
X184866Y400295D01*
X183453Y396884D01*
X183453Y393192D01*
X184866Y389781D01*
G37*
G36*
X193811Y395038D02*
X199834Y389015D01*
X200600Y389781D01*
X202013Y393192D01*
X202013Y396884D01*
X200600Y400295D01*
X199834Y401061D01*
X193811Y395038D01*
G37*
G36*
X17136Y388914D02*
X23249Y388914D01*
X24737Y390401D01*
X24737Y398018D01*
X17136Y398018D01*
X17136Y388914D01*
G37*
G36*
X190887Y385758D02*
X194579Y385758D01*
X197990Y387171D01*
X198756Y387937D01*
X192733Y393960D01*
X186710Y387937D01*
X187476Y387171D01*
X190887Y385758D01*
G37*
G36*
X193811Y300683D02*
X199834Y294660D01*
X200600Y295426D01*
X202013Y298837D01*
X202013Y302529D01*
X200600Y305940D01*
X199834Y306706D01*
X193811Y300683D01*
G37*
G36*
X193811Y205433D02*
X199834Y199410D01*
X200600Y200176D01*
X202013Y203587D01*
X202013Y207279D01*
X200600Y210690D01*
X199834Y211456D01*
X193811Y205433D01*
G37*
G36*
X193811Y110183D02*
X199834Y104160D01*
X200600Y104926D01*
X202013Y108337D01*
X202013Y112029D01*
X200600Y115440D01*
X199834Y116206D01*
X193811Y110183D01*
G37*
G36*
X193811Y-93017D02*
X199834Y-99040D01*
X200600Y-98274D01*
X202013Y-94863D01*
X202013Y-91171D01*
X200600Y-87760D01*
X199834Y-86994D01*
X193811Y-93017D01*
G37*
G36*
X193811Y-188267D02*
X199834Y-194290D01*
X200600Y-193524D01*
X202013Y-190113D01*
X202013Y-186421D01*
X200600Y-183010D01*
X199834Y-182244D01*
X193811Y-188267D01*
G37*
G36*
X193811Y-283517D02*
X199834Y-289540D01*
X200600Y-288774D01*
X202013Y-285363D01*
X202013Y-281671D01*
X200600Y-278260D01*
X199834Y-277494D01*
X193811Y-283517D01*
G37*
G36*
X193811Y-378767D02*
X199834Y-384790D01*
X200600Y-384024D01*
X202013Y-380613D01*
X202013Y-376921D01*
X200600Y-373510D01*
X199834Y-372744D01*
X193811Y-378767D01*
G37*
%LPD*%
G36*
X-184754Y-285589D02*
X-185547Y-285750D01*
X-237046Y-285750D01*
X-237779Y-285613D01*
X-238460Y-285178D01*
X-238917Y-284511D01*
X-239078Y-283718D01*
X-239078Y131318D01*
X-238941Y132051D01*
X-238506Y132732D01*
X-237839Y133189D01*
X-237046Y133350D01*
X-205232Y133350D01*
X-204500Y133213D01*
X-203818Y132778D01*
X-203361Y132111D01*
X-203200Y131318D01*
X-203200Y126199D01*
X-203337Y125466D01*
X-203772Y124785D01*
X-204439Y124327D01*
X-205232Y124167D01*
X-207093Y124167D01*
X-207093Y104434D01*
X-205232Y104434D01*
X-204500Y104297D01*
X-203818Y103861D01*
X-203361Y103194D01*
X-203200Y102402D01*
X-203200Y97362D01*
X-203349Y96599D01*
X-203795Y95925D01*
X-210752Y88968D01*
X-210810Y88898D01*
X-210810Y88897D01*
X-210820Y88799D01*
X-210820Y71509D01*
X-210945Y70807D01*
X-211370Y70119D01*
X-212030Y69651D01*
X-212820Y69477D01*
X-213615Y69626D01*
X-214289Y70072D01*
X-215458Y71242D01*
X-219659Y72982D01*
X-221171Y72982D01*
X-221171Y50122D01*
X-219659Y50122D01*
X-215458Y51862D01*
X-214289Y53032D01*
X-213704Y53440D01*
X-212917Y53626D01*
X-212120Y53490D01*
X-211438Y53054D01*
X-210981Y52387D01*
X-210820Y51595D01*
X-210820Y17806D01*
X-210872Y17348D01*
X-211208Y16612D01*
X-214287Y12375D01*
X-216922Y4264D01*
X-216922Y-4264D01*
X-214287Y-12375D01*
X-211208Y-16612D01*
X-210981Y-17014D01*
X-210820Y-17806D01*
X-210820Y-203108D01*
X-210813Y-203190D01*
X-210812Y-203191D01*
X-210719Y-203200D01*
X-185547Y-203200D01*
X-184815Y-203337D01*
X-184133Y-203772D01*
X-183676Y-204439D01*
X-183515Y-205232D01*
X-183515Y-240195D01*
X-183646Y-240913D01*
X-184076Y-241597D01*
X-184740Y-242060D01*
X-185531Y-242227D01*
X-186325Y-242073D01*
X-186464Y-242015D01*
X-187833Y-242015D01*
X-187833Y-263445D01*
X-186464Y-263445D01*
X-186325Y-263387D01*
X-185612Y-263234D01*
X-184815Y-263369D01*
X-184133Y-263805D01*
X-183676Y-264472D01*
X-183515Y-265265D01*
X-183515Y-283718D01*
X-183652Y-284451D01*
X-184087Y-285132D01*
X-184754Y-285589D01*
G37*
%LPC*%
G36*
X-216218Y115062D02*
X-208617Y115062D01*
X-208617Y124167D01*
X-214730Y124167D01*
X-216218Y122679D01*
X-216218Y115062D01*
G37*
G36*
X-214730Y104434D02*
X-208617Y104434D01*
X-208617Y113538D01*
X-216218Y113538D01*
X-216218Y105921D01*
X-214730Y104434D01*
G37*
G36*
X-233363Y62314D02*
X-222695Y62314D01*
X-222695Y72982D01*
X-224207Y72982D01*
X-228408Y71242D01*
X-231623Y68027D01*
X-233363Y63826D01*
X-233363Y62314D01*
G37*
G36*
X-224207Y50122D02*
X-222695Y50122D01*
X-222695Y60790D01*
X-233363Y60790D01*
X-233363Y59278D01*
X-231623Y55077D01*
X-228408Y51862D01*
X-224207Y50122D01*
G37*
G36*
X-199310Y-251968D02*
X-189357Y-251968D01*
X-189357Y-242015D01*
X-190726Y-242015D01*
X-194665Y-243646D01*
X-197679Y-246660D01*
X-199310Y-250599D01*
X-199310Y-251968D01*
G37*
G36*
X-190726Y-263445D02*
X-189357Y-263445D01*
X-189357Y-253492D01*
X-199310Y-253492D01*
X-199310Y-254861D01*
X-197679Y-258800D01*
X-194665Y-261814D01*
X-190726Y-263445D01*
G37*
%LPD*%
G36*
X49561Y-81119D02*
X48768Y-81280D01*
X-19558Y-81280D01*
X-20291Y-81143D01*
X-20972Y-80708D01*
X-21429Y-80041D01*
X-21590Y-79248D01*
X-21590Y-74722D01*
X-21453Y-73990D01*
X-21018Y-73308D01*
X-20351Y-72851D01*
X-19558Y-72690D01*
X-15172Y-72690D01*
X-15172Y-65888D01*
X-6870Y-65888D01*
X-6870Y-65532D01*
X-6733Y-64800D01*
X-6298Y-64118D01*
X-5631Y-63661D01*
X-4838Y-63500D01*
X48768Y-63500D01*
X49501Y-63637D01*
X50182Y-64072D01*
X50639Y-64739D01*
X50800Y-65532D01*
X50800Y-79248D01*
X50663Y-79981D01*
X50228Y-80662D01*
X49561Y-81119D01*
G37*
%LPC*%
G36*
X-13648Y-72690D02*
X-8358Y-72690D01*
X-6870Y-71202D01*
X-6870Y-67412D01*
X-13648Y-67412D01*
X-13648Y-72690D01*
G37*
%LPD*%
G36*
X20351Y-60799D02*
X19558Y-60960D01*
X-4838Y-60960D01*
X-5571Y-60823D01*
X-6252Y-60388D01*
X-6709Y-59721D01*
X-6870Y-58928D01*
X-6870Y-57912D01*
X-15172Y-57912D01*
X-15172Y-56388D01*
X-6870Y-56388D01*
X-6870Y-48412D01*
X-15172Y-48412D01*
X-15172Y-41610D01*
X-17018Y-41610D01*
X-17751Y-41473D01*
X-18432Y-41038D01*
X-18889Y-40371D01*
X-19050Y-39578D01*
X-19050Y-38862D01*
X-18913Y-38130D01*
X-18478Y-37448D01*
X-17811Y-36991D01*
X-17018Y-36830D01*
X19558Y-36830D01*
X20291Y-36967D01*
X20972Y-37402D01*
X21429Y-38069D01*
X21590Y-38862D01*
X21590Y-58928D01*
X21453Y-59661D01*
X21018Y-60342D01*
X20351Y-60799D01*
G37*
%LPC*%
G36*
X-13648Y-46888D02*
X-6870Y-46888D01*
X-6870Y-43098D01*
X-8358Y-41610D01*
X-13648Y-41610D01*
X-13648Y-46888D01*
G37*
%LPD*%
D10*
X139700Y342005D03*
X157378Y359683D03*
X175055Y377360D03*
X192733Y395038D03*
X139700Y247650D03*
X157378Y265328D03*
X175055Y283005D03*
X192733Y300683D03*
X139700Y152400D03*
X157378Y170078D03*
X175055Y187755D03*
X192733Y205433D03*
X139700Y57150D03*
X157378Y74828D03*
X175055Y92505D03*
X192733Y110183D03*
X139700Y-431800D03*
X157378Y-414122D03*
X175055Y-396445D03*
X192733Y-378767D03*
X139700Y-336550D03*
X157378Y-318872D03*
X175055Y-301195D03*
X192733Y-283517D03*
X139700Y-241300D03*
X157378Y-223622D03*
X175055Y-205945D03*
X192733Y-188267D03*
X139700Y-146050D03*
X157378Y-128372D03*
X175055Y-110695D03*
X192733Y-93017D03*
D11*
X2350Y250020D03*
X8850Y250020D03*
X15350Y250020D03*
X21850Y250020D03*
X28350Y250020D03*
X34850Y250020D03*
X41350Y250020D03*
X47850Y250020D03*
X54350Y250020D03*
X60850Y250020D03*
X67350Y250020D03*
X73850Y250020D03*
X73850Y308780D03*
X67350Y308780D03*
X60850Y308780D03*
X54350Y308780D03*
X47850Y308780D03*
X41350Y308780D03*
X34850Y308780D03*
X28350Y308780D03*
X21850Y308780D03*
X15350Y308780D03*
X8850Y308780D03*
X2350Y308780D03*
D12*
X-188595Y-252730D03*
X-163195Y-252730D03*
X-137795Y-252730D03*
D13*
X-137795Y-87630D03*
D14*
X-162795Y-87630D03*
X-187795Y-87630D03*
X-137795Y-141630D03*
X-162795Y-141630D03*
X-187795Y-141630D03*
D15*
X44450Y-421578D03*
X31750Y-421578D03*
X19050Y-421578D03*
X6350Y-421578D03*
D16*
X69550Y-427078D03*
X-18750Y-427078D03*
X69550Y-477078D03*
X-18750Y-477078D03*
D17*
X-92600Y304600D03*
X-92600Y315600D03*
X-92600Y326600D03*
X-92600Y337600D03*
X-92600Y348600D03*
X-92600Y359600D03*
X-92600Y370600D03*
X-92600Y381600D03*
X-92600Y392600D03*
D18*
X-101100Y403600D03*
D19*
X-198100Y407800D03*
X-198100Y252600D03*
D18*
X-101100Y256800D03*
D20*
G36*
X-46231Y313597D02*
X-43050Y310416D01*
X-44465Y309001D01*
X-47646Y312182D01*
X-46231Y313597D01*
G37*
G36*
X-43402Y316425D02*
X-40221Y313244D01*
X-41636Y311829D01*
X-44817Y315010D01*
X-43402Y316425D01*
G37*
G36*
X-40574Y319254D02*
X-37393Y316073D01*
X-38808Y314658D01*
X-41989Y317839D01*
X-40574Y319254D01*
G37*
G36*
X-37746Y322082D02*
X-34565Y318901D01*
X-35980Y317486D01*
X-39161Y320667D01*
X-37746Y322082D01*
G37*
G36*
X-34917Y324911D02*
X-31736Y321730D01*
X-33151Y320315D01*
X-36332Y323496D01*
X-34917Y324911D01*
G37*
G36*
X-32089Y327739D02*
X-28908Y324558D01*
X-30323Y323143D01*
X-33504Y326324D01*
X-32089Y327739D01*
G37*
G36*
X-29260Y330567D02*
X-26079Y327386D01*
X-27494Y325971D01*
X-30675Y329152D01*
X-29260Y330567D01*
G37*
G36*
X-26432Y333396D02*
X-23251Y330215D01*
X-24666Y328800D01*
X-27847Y331981D01*
X-26432Y333396D01*
G37*
G36*
X-34564Y341528D02*
X-31383Y338347D01*
X-32798Y336932D01*
X-35979Y340113D01*
X-34564Y341528D01*
G37*
G36*
X-37392Y338699D02*
X-34211Y335518D01*
X-35626Y334103D01*
X-38807Y337284D01*
X-37392Y338699D01*
G37*
G36*
X-40220Y335871D02*
X-37039Y332690D01*
X-38454Y331275D01*
X-41635Y334456D01*
X-40220Y335871D01*
G37*
G36*
X-43049Y333042D02*
X-39868Y329861D01*
X-41283Y328446D01*
X-44464Y331627D01*
X-43049Y333042D01*
G37*
G36*
X-45877Y330214D02*
X-42696Y327033D01*
X-44111Y325618D01*
X-47292Y328799D01*
X-45877Y330214D01*
G37*
G36*
X-48706Y327385D02*
X-45525Y324204D01*
X-46940Y322789D01*
X-50121Y325970D01*
X-48706Y327385D01*
G37*
G36*
X-51534Y324557D02*
X-48353Y321376D01*
X-49768Y319961D01*
X-52949Y323142D01*
X-51534Y324557D01*
G37*
G36*
X-54363Y321729D02*
X-51182Y318548D01*
X-52597Y317133D01*
X-55778Y320314D01*
X-54363Y321729D01*
G37*
D21*
G36*
X-28554Y334102D02*
X-48352Y314304D01*
X-50474Y316426D01*
X-30676Y336224D01*
X-28554Y334102D01*
G37*
D22*
X-14410Y-66650D03*
X-14410Y-57150D03*
X-14410Y-47650D03*
X-36390Y-47650D03*
X-36390Y-57150D03*
X-36390Y-66650D03*
D23*
X19050Y-92479D03*
D24*
X19050Y-108018D03*
D25*
X-13844Y-20320D03*
X-29336Y-20320D03*
D26*
X-31750Y-109346D03*
X-31750Y-93854D03*
D27*
X-100330Y-86892D03*
X-100330Y-70588D03*
X-127000Y-8152D03*
X-127000Y8152D03*
D28*
X16374Y398780D03*
X-1134Y398780D03*
X-207855Y114300D03*
X-190347Y114300D03*
D25*
X15366Y426720D03*
X-126Y426720D03*
D29*
X-221933Y61552D03*
D30*
X-196533Y61552D03*
D29*
X-171133Y61552D03*
X-145733Y61552D03*
X-120333Y61552D03*
X-94933Y61552D03*
X-69533Y61552D03*
X-44133Y61552D03*
X-18733Y61552D03*
X-221933Y213952D03*
X-196533Y213952D03*
X-171133Y213952D03*
X-145733Y213952D03*
X-120333Y213952D03*
X-94933Y213952D03*
X-69533Y213952D03*
X-44133Y213952D03*
X-18733Y213952D03*
D31*
X8850Y308780D02*
X9426Y309356D01*
D32*
X9282Y327599D03*
D31*
X9426Y327455D02*
X9426Y309356D01*
X9426Y327455D02*
X9282Y327599D01*
D32*
X15425Y335247D03*
D31*
X15350Y335172D01*
X15350Y308780D01*
X-81910Y315600D02*
X-92600Y315600D01*
X-81910Y315600D02*
X-64897Y332613D01*
X-49691Y332613D02*
X-44994Y327916D01*
X-49691Y332613D02*
X-64897Y332613D01*
X-77260Y326600D02*
X-92600Y326600D01*
X-77260Y326600D02*
X-68199Y335661D01*
X-47083Y335661D01*
X-42166Y330744D01*
X-54365Y348600D02*
X-92600Y348600D01*
X-54365Y348600D02*
X-39337Y333573D01*
X-70708Y370600D02*
X-92600Y370600D01*
X-70708Y370600D02*
X-36509Y336401D01*
X-76051Y381600D02*
X-92600Y381600D01*
X-76051Y381600D02*
X-33681Y339230D01*
D32*
X-165100Y482600D03*
X-165100Y-482600D03*
X228600Y-419100D03*
X-228600Y-419100D03*
X-101600Y482600D03*
X-101600Y-482600D03*
X228600Y-355600D03*
X228600Y101600D03*
X-228600Y-355600D03*
X152400Y482600D03*
X152400Y-482600D03*
X228600Y-101600D03*
X228600Y355600D03*
X228600Y419100D03*
X-228600Y355600D03*
X-228600Y419100D03*
X25400Y482600D03*
X25400Y-482600D03*
X228600Y-228600D03*
X228600Y228600D03*
X-228600Y228600D03*
X-38100Y482600D03*
X-38100Y-482600D03*
X228600Y-292100D03*
X228600Y165100D03*
X-228600Y-292100D03*
X-228600Y165100D03*
X88900Y482600D03*
X88900Y-482600D03*
X228600Y-165100D03*
X228600Y292100D03*
X-228600Y292100D03*
X124460Y359410D03*
X115570Y-377190D03*
X127000Y-168910D03*
X38382Y46990D03*
X15932Y360680D03*
X86118Y176530D03*
X91440Y346428D03*
X73660Y-217170D03*
X38697Y381673D03*
X46894Y353156D03*
X53566Y60960D03*
X55880Y339090D03*
X69308Y160020D03*
X102870Y252730D03*
X77374Y362046D03*
X102870Y312420D03*
X68580Y328704D03*
X74930Y-93980D03*
X86360Y312420D03*
X82550Y238760D03*
X102870Y191770D03*
X84848Y88900D03*
X65998Y229100D03*
X69308Y76200D03*
X127282Y-52070D03*
X53566Y146050D03*
X110716Y-64770D03*
X51722Y221902D03*
X110490Y-182880D03*
X113030Y-270510D03*
X94036Y-78740D03*
X93980Y-288290D03*
X38228Y213360D03*
X66040Y-377825D03*
X-8890Y317500D03*
X22860Y326390D03*
X16510Y635D03*
X92710Y-199390D03*
X72390Y-307975D03*
X-66040Y356235D03*
X-59055Y342265D03*
X52240Y-41105D03*
X62384Y-29056D03*
X71909Y-16991D03*
X81434Y-4926D03*
X27940Y-52070D03*
X6350Y-101600D03*
X33020Y-91440D03*
X-45720Y-76200D03*
X-162560Y-63500D03*
X-140970Y-63500D03*
X-104140Y-19050D03*
X-119380Y-19050D03*
X-133350Y41910D03*
X-64770Y190500D03*
X-64770Y165100D03*
X-64770Y139700D03*
X-64770Y114300D03*
X-64770Y88900D03*
X15240Y88900D03*
X15240Y114300D03*
X15240Y139700D03*
X15240Y165100D03*
X15240Y190500D03*
X38100Y133350D03*
X-51082Y-48260D03*
X-76200Y6350D03*
X-36830Y40640D03*
X19050Y-400050D03*
X38100Y-382270D03*
X-3810Y-353060D03*
X-80010Y-276860D03*
X-60960Y-259080D03*
X-85090Y-127000D03*
X-83820Y-182880D03*
X-63500Y-107950D03*
X-62230Y-162560D03*
X6350Y-119380D03*
X-201930Y-193040D03*
X-201930Y-114300D03*
X-201930Y-49530D03*
X139700Y280670D03*
X-26670Y262890D03*
X-78740Y246380D03*
X-31750Y290830D03*
X-78740Y273050D03*
X-166370Y238760D03*
X-142240Y0D03*
X119324Y311785D03*
X123134Y264795D03*
X119324Y206375D03*
X110292Y115372D03*
D31*
X-77250Y337600D02*
X-92600Y337600D01*
X-77250Y337600D02*
X-76200Y336550D01*
D32*
X-76200Y336550D03*
X-63500Y317500D03*
D31*
X-63500Y324485D01*
X-52877Y324485D02*
X-50651Y322259D01*
X-52877Y324485D02*
X-63500Y324485D01*
X-171133Y171133D02*
X-171133Y61552D01*
X-171133Y171133D02*
X-183325Y183325D01*
X-183325Y260845D01*
X-171133Y61552D02*
X-137341Y27760D01*
X-127000Y17419D01*
X-127000Y8152D01*
X-106570Y337600D02*
X-92600Y337600D01*
X-106570Y337600D02*
X-183325Y260845D01*
X-133350Y31750D02*
X-137341Y27760D01*
X-133350Y31750D02*
X-113030Y31750D01*
X6350Y-349250D02*
X6350Y-421578D01*
X-77216Y-4064D02*
X-113030Y31750D01*
X-77216Y-4064D02*
X-77216Y-265684D01*
X6350Y-349250D01*
X-94933Y215222D02*
X-81087Y229067D01*
X-94933Y215222D02*
X-94933Y213952D01*
X-81087Y229067D02*
X-81087Y229101D01*
X-24412Y285777D01*
X-24412Y307334D01*
X-36863Y319784D01*
X-34034Y322613D02*
X-21364Y309942D01*
X-69533Y236345D02*
X-69533Y213952D01*
X-69533Y236345D02*
X-21364Y284514D01*
X-21364Y309942D01*
X-18316Y312551D02*
X-31206Y325441D01*
X-18316Y312551D02*
X-18316Y283251D01*
X-44168Y213987D02*
X-44133Y213952D01*
X-44168Y213987D02*
X-44168Y257399D01*
X-18316Y283251D01*
X-15268Y315160D02*
X-28377Y328269D01*
X-15268Y315160D02*
X-15268Y281989D01*
X-18733Y278524D01*
X-18733Y213952D01*
X-71120Y-263159D02*
X44450Y-378729D01*
X44450Y-421578D01*
X-71120Y-263159D02*
X-71120Y-5080D01*
X-18733Y47307D02*
X-18733Y61552D01*
X-18733Y47307D02*
X-71120Y-5080D01*
X-74168Y-3817D02*
X-44133Y26218D01*
X-44133Y61552D01*
X-74168Y-3817D02*
X-74168Y-264421D01*
X31750Y-370339D01*
X31750Y-421578D01*
X17722Y-109346D02*
X-31750Y-109346D01*
X17722Y-109346D02*
X19050Y-108018D01*
X-31750Y-109346D02*
X-51788Y-89308D01*
X-51788Y-70315D01*
X-38623Y-57150D01*
X-36390Y-57150D01*
X-34227Y-91377D02*
X-31750Y-93854D01*
X-36390Y-82550D02*
X-36390Y-66650D01*
X-36390Y-82550D02*
X-34227Y-84713D01*
X-34227Y-91377D01*
D32*
X36830Y-67945D03*
D31*
X16374Y371974D02*
X16374Y398780D01*
X16374Y371974D02*
X2350Y357950D01*
X2350Y308780D01*
D32*
X47625Y-73025D03*
X36830Y-77470D03*
X134620Y1270D03*
X123825Y-5080D03*
X134620Y-9525D03*
D31*
X-7400Y-73660D02*
X-14410Y-66650D01*
X-7400Y-73660D02*
X16510Y-73660D01*
X19050Y-76200D01*
X19050Y-92479D01*
X-13844Y-47084D02*
X-13844Y-20320D01*
X-13844Y-47084D02*
X-14410Y-47650D01*
X-14410Y-57150D01*
D32*
X5080Y-55880D03*
X11430Y-48260D03*
X16510Y-55880D03*
D31*
X-137795Y-86892D02*
X-137795Y-87630D01*
X-137795Y-86892D02*
X-100330Y-86892D01*
X-127000Y-19050D02*
X-127000Y-8152D01*
X-127000Y-19050D02*
X-187795Y-79845D01*
X-187795Y-87630D01*
X21850Y213190D02*
X21850Y250020D01*
X139700Y-415995D02*
X139700Y-431800D01*
X139700Y-415995D02*
X81054Y-357349D01*
X81054Y-61338D01*
X28984Y206056D02*
X21850Y213190D01*
X28984Y-9268D02*
X81054Y-61338D01*
X28984Y-9268D02*
X28984Y206056D01*
X28350Y211001D02*
X28350Y250020D01*
X142138Y-414122D02*
X157378Y-414122D01*
X84102Y-356087D02*
X84102Y-60068D01*
X84102Y-356087D02*
X142138Y-414122D01*
X32032Y207319D02*
X28350Y211001D01*
X32032Y-7998D02*
X84102Y-60068D01*
X32032Y-7998D02*
X32032Y207319D01*
X44450Y216282D02*
X35544Y225188D01*
X35544Y249326D01*
X34850Y250020D01*
X139700Y-315152D02*
X139700Y-336550D01*
X139700Y-315152D02*
X101374Y-276826D01*
X101374Y-59464D01*
X44450Y-2540D01*
X44450Y216282D01*
X47498Y217545D02*
X41350Y223693D01*
X41350Y250020D01*
X147731Y-318872D02*
X157378Y-318872D01*
X147731Y-318872D02*
X104422Y-275564D01*
X47498Y-1277D02*
X47498Y217545D01*
X104422Y-58201D02*
X104422Y-275564D01*
X104422Y-58201D02*
X47498Y-1277D01*
X48544Y249326D02*
X47850Y250020D01*
X139700Y-212795D02*
X139700Y-241300D01*
X139700Y-212795D02*
X117884Y-190979D01*
X48544Y233662D02*
X48544Y249326D01*
X48544Y233662D02*
X59974Y222232D01*
X117884Y-54384D02*
X117884Y-190979D01*
X117884Y-54384D02*
X59974Y3526D01*
X59974Y222232D01*
X53774Y249444D02*
X54350Y250020D01*
X63022Y4789D02*
X120932Y-53121D01*
X154838Y-223622D02*
X157378Y-223622D01*
X154838Y-223622D02*
X120932Y-189717D01*
X120932Y-53121D01*
X53774Y232742D02*
X53774Y249444D01*
X63022Y223494D02*
X63022Y4789D01*
X63022Y223494D02*
X53774Y232742D01*
X136398Y-46997D02*
X136398Y-104853D01*
X157378Y-125832D02*
X157378Y-128372D01*
X157378Y-125832D02*
X136398Y-104853D01*
X68044Y249326D02*
X67350Y250020D01*
X68044Y249326D02*
X68044Y240216D01*
X78424Y10977D02*
X136398Y-46997D01*
X78424Y229836D02*
X68044Y240216D01*
X78424Y229836D02*
X78424Y10977D01*
X60850Y243100D02*
X60850Y250020D01*
X60850Y243100D02*
X75376Y228574D01*
X139700Y-112465D02*
X139700Y-146050D01*
X139700Y-112465D02*
X133350Y-106115D01*
X133350Y-48260D01*
X75376Y9714D01*
X75376Y228574D01*
X139700Y71685D02*
X139700Y57150D01*
X139700Y71685D02*
X92710Y118675D01*
X92710Y314652D01*
X83794Y323568D01*
X77208Y323568D01*
X73850Y320210D01*
X73850Y308780D01*
X85852Y326898D02*
X96520Y316230D01*
X85852Y326898D02*
X76227Y326898D01*
X67350Y318021D01*
X67350Y308780D01*
X140868Y74828D02*
X157378Y74828D01*
X140868Y74828D02*
X96520Y119175D01*
X96520Y316230D01*
X60850Y316400D02*
X60850Y308780D01*
X60850Y316400D02*
X58310Y318940D01*
X139700Y166935D02*
X139700Y152400D01*
X139700Y166935D02*
X110208Y196427D01*
X58310Y327016D02*
X68607Y337312D01*
X58310Y327016D02*
X58310Y318940D01*
X110208Y318744D02*
X110208Y196427D01*
X110208Y318744D02*
X91640Y337312D01*
X68607Y337312D01*
X54350Y328670D02*
X54350Y308780D01*
X54350Y328670D02*
X66040Y340360D01*
X92902Y340360D01*
X113256Y320006D01*
X113256Y197689D01*
X140868Y170078D01*
X157378Y170078D01*
X45310Y320210D02*
X45310Y337410D01*
X46580Y318940D02*
X46580Y304970D01*
X47850Y306240D02*
X47850Y308780D01*
X47850Y306240D02*
X46580Y304970D01*
X46580Y318940D02*
X45310Y320210D01*
X45310Y337410D02*
X60396Y352496D01*
X95153Y352496D01*
X127000Y320649D01*
X127000Y274885D01*
X139700Y262185D02*
X139700Y247650D01*
X139700Y262185D02*
X127000Y274885D01*
X42262Y309692D02*
X41350Y308780D01*
X42262Y309692D02*
X42262Y338673D01*
X59133Y355544D01*
X96415Y355544D01*
X130048Y321911D01*
X140868Y265328D02*
X157378Y265328D01*
X140868Y265328D02*
X130048Y276147D01*
X130048Y321911D01*
X139700Y342005D02*
X139700Y357245D01*
X34850Y321129D02*
X34850Y308780D01*
X34850Y321129D02*
X35746Y322025D01*
X35746Y350590D02*
X53270Y368114D01*
X35746Y350590D02*
X35746Y322025D01*
X128831Y368114D02*
X139700Y357245D01*
X128831Y368114D02*
X53270Y368114D01*
X141573Y359683D02*
X157378Y359683D01*
X28350Y318940D02*
X28350Y308780D01*
X28350Y318940D02*
X32698Y323288D01*
X32698Y351852D02*
X52008Y371162D01*
X32698Y351852D02*
X32698Y323288D01*
X130094Y371162D02*
X141573Y359683D01*
X130094Y371162D02*
X52008Y371162D01*
M02*
